<svg xmlns="http://www.w3.org/2000/svg" xmlns:xlink="http://www.w3.org/1999/xlink" viewBox="0 0 563.24 292.94"><defs><style>.cls-1{isolation:isolate;}.cls-2{opacity:0.14;mix-blend-mode:multiply;fill:url(#linear-gradient);}.cls-3{fill:url(#linear-gradient-2);}.cls-4{fill:url(#linear-gradient-3);}.cls-5{fill:url(#linear-gradient-4);}.cls-6{fill:url(#linear-gradient-5);}.cls-7{fill:url(#linear-gradient-6);}.cls-8{fill:url(#linear-gradient-7);}.cls-9{fill:url(#linear-gradient-8);}.cls-10{fill:url(#linear-gradient-9);}.cls-11{fill:url(#linear-gradient-10);}.cls-12{fill:url(#linear-gradient-11);}.cls-13{fill:url(#linear-gradient-12);}.cls-14{fill:url(#linear-gradient-13);}.cls-15{fill:url(#linear-gradient-14);}.cls-16{fill:url(#linear-gradient-15);}.cls-17{fill:url(#linear-gradient-16);}.cls-18{fill:url(#linear-gradient-17);}.cls-19{fill:url(#linear-gradient-18);}.cls-20{fill:url(#linear-gradient-19);}.cls-21{fill:url(#linear-gradient-20);}.cls-22{fill:url(#linear-gradient-21);}.cls-23{fill:url(#linear-gradient-22);}.cls-24{fill:url(#linear-gradient-23);}.cls-25{fill:url(#linear-gradient-24);}.cls-26{fill:url(#linear-gradient-25);}.cls-27{fill:url(#linear-gradient-26);}.cls-28{fill:url(#linear-gradient-27);}.cls-29{fill:url(#linear-gradient-28);}.cls-30{fill:url(#linear-gradient-29);}.cls-31{fill:url(#linear-gradient-30);}.cls-32{fill:url(#linear-gradient-31);}.cls-33{fill:url(#linear-gradient-32);}.cls-34{fill:url(#linear-gradient-33);}.cls-35{fill:url(#linear-gradient-34);}.cls-36{fill:url(#linear-gradient-35);}.cls-37{fill:url(#linear-gradient-36);}.cls-38{fill:url(#linear-gradient-37);}.cls-39{fill:url(#linear-gradient-38);}.cls-40{fill:url(#linear-gradient-39);}.cls-41{fill:url(#linear-gradient-40);}.cls-42{fill:#fff;}.cls-43{fill:url(#linear-gradient-41);}.cls-44{fill:url(#linear-gradient-42);}.cls-45{fill:url(#linear-gradient-43);}.cls-46{fill:url(#linear-gradient-44);}.cls-47{fill:url(#linear-gradient-45);}.cls-48{fill:url(#linear-gradient-46);}.cls-49,.cls-68,.cls-97{opacity:0.3;mix-blend-mode:overlay;}.cls-49{fill:url(#linear-gradient-47);}.cls-50{fill:url(#linear-gradient-48);}.cls-51{fill:url(#linear-gradient-49);}.cls-52{fill:url(#linear-gradient-50);}.cls-53{fill:url(#linear-gradient-51);}.cls-54{fill:url(#linear-gradient-52);}.cls-55{fill:url(#linear-gradient-53);}.cls-56{fill:url(#linear-gradient-54);}.cls-57{fill:url(#linear-gradient-55);}.cls-58{fill:url(#linear-gradient-56);}.cls-59{fill:url(#linear-gradient-57);}.cls-60{fill:url(#linear-gradient-58);}.cls-61{fill:url(#linear-gradient-59);}.cls-62{fill:url(#linear-gradient-60);}.cls-63{fill:url(#linear-gradient-61);}.cls-64{fill:url(#linear-gradient-62);}.cls-65{fill:url(#linear-gradient-63);}.cls-66{fill:url(#linear-gradient-64);}.cls-67{fill:url(#linear-gradient-65);}.cls-68{fill:url(#linear-gradient-66);}.cls-69{fill:url(#linear-gradient-67);}.cls-70{fill:url(#linear-gradient-68);}.cls-71{fill:url(#linear-gradient-69);}.cls-72{fill:url(#linear-gradient-70);}.cls-73{fill:url(#linear-gradient-71);}.cls-74{fill:url(#linear-gradient-72);}.cls-75{fill:url(#linear-gradient-73);}.cls-76{fill:url(#linear-gradient-74);}.cls-77{fill:#ffb5be;}.cls-78{fill:url(#linear-gradient-75);}.cls-79{fill:url(#linear-gradient-76);}.cls-80{fill:url(#linear-gradient-77);}.cls-81{fill:url(#linear-gradient-78);}.cls-82{fill:url(#linear-gradient-79);}.cls-83{fill:url(#linear-gradient-80);}.cls-84{fill:#ffe1df;}.cls-85{fill:url(#linear-gradient-81);}.cls-86{fill:url(#linear-gradient-82);}.cls-87{fill:url(#linear-gradient-83);}.cls-88{fill:url(#linear-gradient-84);}.cls-89{fill:url(#linear-gradient-85);}.cls-90{fill:url(#linear-gradient-86);}.cls-91{fill:url(#linear-gradient-87);}.cls-92{fill:url(#linear-gradient-88);}.cls-93{fill:url(#linear-gradient-89);}.cls-94{fill:url(#linear-gradient-90);}.cls-95{fill:url(#linear-gradient-91);}.cls-96{fill:url(#linear-gradient-92);}.cls-97{fill:url(#linear-gradient-93);}.cls-98{fill:url(#linear-gradient-94);}.cls-99{fill:url(#linear-gradient-95);}.cls-100{fill:url(#linear-gradient-96);}.cls-101{fill:url(#linear-gradient-97);}.cls-102{fill:url(#linear-gradient-98);}.cls-103{fill:url(#linear-gradient-99);}.cls-104{fill:url(#linear-gradient-100);}.cls-105{fill:url(#linear-gradient-101);}.cls-106{fill:#ffc58c;}.cls-107{fill:url(#linear-gradient-102);}.cls-108{fill:url(#linear-gradient-103);}.cls-109{fill:url(#linear-gradient-104);}.cls-110{fill:url(#linear-gradient-105);}.cls-111{fill:url(#linear-gradient-106);}.cls-112{fill:url(#linear-gradient-107);}.cls-113{fill:url(#linear-gradient-108);}.cls-114{fill:url(#linear-gradient-109);}.cls-115{fill:url(#linear-gradient-110);}.cls-116{fill:url(#linear-gradient-111);}.cls-117{fill:url(#linear-gradient-112);}.cls-118{fill:url(#linear-gradient-113);}.cls-119{fill:url(#linear-gradient-114);}.cls-120{fill:url(#linear-gradient-115);}.cls-121{fill:url(#linear-gradient-116);}.cls-122{fill:url(#linear-gradient-117);}.cls-123{fill:#1d262d;}.cls-124{fill:url(#linear-gradient-118);}.cls-125{fill:url(#linear-gradient-119);}.cls-126{fill:url(#linear-gradient-120);}.cls-127{fill:url(#linear-gradient-121);}.cls-128{fill:url(#linear-gradient-122);}.cls-129{fill:url(#linear-gradient-123);}.cls-130{fill:url(#linear-gradient-124);}.cls-131{fill:url(#linear-gradient-125);}.cls-132{fill:url(#linear-gradient-126);}.cls-133{fill:url(#linear-gradient-127);}.cls-134{fill:url(#linear-gradient-128);}.cls-135{fill:url(#linear-gradient-129);}.cls-136{fill:#ffc38a;}.cls-137{fill:url(#linear-gradient-130);}.cls-138{fill:url(#linear-gradient-131);}.cls-139{fill:url(#linear-gradient-132);}.cls-140{fill:url(#linear-gradient-133);}.cls-141{fill:url(#linear-gradient-134);}.cls-142{fill:url(#linear-gradient-135);}.cls-143{fill:url(#linear-gradient-136);}.cls-144{fill:url(#linear-gradient-137);}.cls-145{fill:url(#linear-gradient-138);}.cls-146{fill:url(#linear-gradient-139);}.cls-147{fill:url(#linear-gradient-140);}.cls-148{fill:url(#linear-gradient-141);}.cls-149{fill:url(#linear-gradient-142);}.cls-150{fill:url(#linear-gradient-143);}.cls-151{fill:url(#linear-gradient-144);}.cls-152{fill:url(#linear-gradient-145);}.cls-153{fill:url(#linear-gradient-146);}.cls-154{fill:url(#linear-gradient-147);}.cls-155{fill:url(#linear-gradient-148);}.cls-156{fill:url(#linear-gradient-149);}.cls-157{fill:url(#linear-gradient-150);}.cls-158{fill:url(#linear-gradient-151);}.cls-159{fill:url(#linear-gradient-152);}.cls-160{fill:url(#linear-gradient-153);}.cls-161{fill:url(#linear-gradient-154);}.cls-162{fill:url(#linear-gradient-155);}.cls-163{fill:url(#linear-gradient-156);}.cls-164{fill:url(#linear-gradient-157);}.cls-165{fill:url(#linear-gradient-158);}.cls-166{fill:url(#linear-gradient-159);}</style><linearGradient id="linear-gradient" x1="288.37" y1="282.02" x2="288.37" y2="357.59" gradientUnits="userSpaceOnUse"><stop offset="0" stop-color="#0e090f"/><stop offset="1" stop-color="#38243d" stop-opacity="0.2"/></linearGradient><linearGradient id="linear-gradient-2" x1="934.49" y1="412.35" x2="953.74" y2="676.47" gradientUnits="userSpaceOnUse"><stop offset="0" stop-color="#e97fb3"/><stop offset="0.21" stop-color="#ad97c6"/><stop offset="0.49" stop-color="#64b4de"/><stop offset="0.73" stop-color="#2ecaef"/><stop offset="0.9" stop-color="#0dd7fa"/><stop offset="1" stop-color="#00dcfe"/></linearGradient><linearGradient id="linear-gradient-3" x1="1244.49" y1="431.45" x2="1195.17" y2="580.11" gradientTransform="matrix(-1, 0, 0, 1, 2424.84, 0)" gradientUnits="userSpaceOnUse"><stop offset="0" stop-color="#39c4e2" stop-opacity="0.97"/><stop offset="1" stop-color="#007a68"/></linearGradient><linearGradient id="linear-gradient-4" x1="1254.6" y1="434.8" x2="1205.28" y2="583.46" xlink:href="#linear-gradient-3"/><linearGradient id="linear-gradient-5" x1="1245.06" y1="431.64" x2="1195.74" y2="580.3" xlink:href="#linear-gradient-3"/><linearGradient id="linear-gradient-6" x1="1250.21" y1="433.35" x2="1200.89" y2="582.01" xlink:href="#linear-gradient-3"/><linearGradient id="linear-gradient-7" x1="1255.38" y1="435.06" x2="1206.05" y2="583.72" xlink:href="#linear-gradient-3"/><linearGradient id="linear-gradient-8" x1="1263.13" y1="437.63" x2="1213.81" y2="586.29" xlink:href="#linear-gradient-3"/><linearGradient id="linear-gradient-9" x1="1260.27" y1="436.68" x2="1210.94" y2="585.34" xlink:href="#linear-gradient-3"/><linearGradient id="linear-gradient-10" x1="1268.37" y1="439.37" x2="1219.05" y2="588.03" xlink:href="#linear-gradient-3"/><linearGradient id="linear-gradient-11" x1="1276.09" y1="441.93" x2="1226.76" y2="590.59" xlink:href="#linear-gradient-3"/><linearGradient id="linear-gradient-12" x1="1270.97" y1="440.24" x2="1221.65" y2="588.9" xlink:href="#linear-gradient-3"/><linearGradient id="linear-gradient-13" x1="1285.44" y1="445.04" x2="1236.12" y2="593.7" xlink:href="#linear-gradient-3"/><linearGradient id="linear-gradient-14" x1="1271.53" y1="440.42" x2="1222.2" y2="589.08" xlink:href="#linear-gradient-3"/><linearGradient id="linear-gradient-15" x1="1188.49" y1="441.67" x2="1139.16" y2="590.33" gradientUnits="userSpaceOnUse"><stop offset="0" stop-color="#e6a224"/><stop offset="0.35" stop-color="#e68349"/><stop offset="0.78" stop-color="#e56171"/><stop offset="1" stop-color="#e55480"/></linearGradient><linearGradient id="linear-gradient-16" x1="653.52" y1="477.63" x2="698.04" y2="622.18" xlink:href="#linear-gradient-15"/><linearGradient id="linear-gradient-17" x1="657.58" y1="476.38" x2="702.11" y2="620.93" xlink:href="#linear-gradient-15"/><linearGradient id="linear-gradient-18" x1="646.72" y1="479.72" x2="691.25" y2="624.27" xlink:href="#linear-gradient-15"/><linearGradient id="linear-gradient-19" x1="645.11" y1="480.22" x2="689.64" y2="624.77" xlink:href="#linear-gradient-15"/><linearGradient id="linear-gradient-20" x1="643.59" y1="480.69" x2="688.12" y2="625.24" xlink:href="#linear-gradient-15"/><linearGradient id="linear-gradient-21" x1="644.62" y1="480.37" x2="689.14" y2="624.92" xlink:href="#linear-gradient-15"/><linearGradient id="linear-gradient-22" x1="657.42" y1="476.43" x2="701.95" y2="620.98" xlink:href="#linear-gradient-15"/><linearGradient id="linear-gradient-23" x1="659.97" y1="475.64" x2="704.49" y2="620.19" xlink:href="#linear-gradient-15"/><linearGradient id="linear-gradient-24" x1="660.46" y1="475.49" x2="704.99" y2="620.04" xlink:href="#linear-gradient-15"/><linearGradient id="linear-gradient-25" x1="646.14" y1="479.9" x2="690.66" y2="624.45" xlink:href="#linear-gradient-15"/><linearGradient id="linear-gradient-26" x1="663.83" y1="474.45" x2="708.36" y2="619" xlink:href="#linear-gradient-15"/><linearGradient id="linear-gradient-27" x1="656.39" y1="476.74" x2="700.92" y2="621.29" xlink:href="#linear-gradient-15"/><linearGradient id="linear-gradient-28" x1="688.8" y1="469.02" x2="733.33" y2="613.57" gradientTransform="matrix(1, 0, 0, 1, 0, 0)" xlink:href="#linear-gradient-3"/><linearGradient id="linear-gradient-29" x1="669.89" y1="474.85" x2="714.42" y2="619.4" gradientTransform="matrix(1, 0, 0, 1, 0, 0)" xlink:href="#linear-gradient-3"/><linearGradient id="linear-gradient-30" x1="701.73" y1="465.04" x2="746.26" y2="609.59" gradientTransform="matrix(1, 0, 0, 1, 0, 0)" xlink:href="#linear-gradient-3"/><linearGradient id="linear-gradient-31" x1="1145.78" y1="510.84" x2="1144.75" y2="366.97" gradientUnits="userSpaceOnUse"><stop offset="0" stop-color="#b866fa"/><stop offset="1" stop-color="#78ddfe"/></linearGradient><linearGradient id="linear-gradient-32" x1="1004.28" y1="511.85" x2="1003.25" y2="367.98" xlink:href="#linear-gradient-31"/><linearGradient id="linear-gradient-33" x1="1187.72" y1="512.4" x2="1188.67" y2="484.36" xlink:href="#linear-gradient-31"/><linearGradient id="linear-gradient-34" x1="820.91" y1="513.16" x2="819.89" y2="369.29" xlink:href="#linear-gradient-31"/><linearGradient id="linear-gradient-35" x1="785.72" y1="513.41" x2="784.69" y2="369.54" xlink:href="#linear-gradient-31"/><linearGradient id="linear-gradient-36" x1="1088.55" y1="511.25" x2="1087.53" y2="367.38" xlink:href="#linear-gradient-31"/><linearGradient id="linear-gradient-37" x1="717.43" y1="513.9" x2="716.4" y2="370.03" xlink:href="#linear-gradient-31"/><linearGradient id="linear-gradient-38" x1="1075.3" y1="450.25" x2="1079.95" y2="450.25" gradientUnits="userSpaceOnUse"><stop offset="0" stop-color="#f4f3f1"/><stop offset="1" stop-color="#ffb2bc"/></linearGradient><linearGradient id="linear-gradient-39" x1="7327.77" y1="-820.86" x2="7311.48" y2="-830.26" gradientTransform="matrix(-0.13, -0.99, -0.99, 0.13, 1240.62, 7816.67)" xlink:href="#linear-gradient-38"/><linearGradient id="linear-gradient-40" x1="1073.99" y1="450.81" x2="1080.84" y2="460.69" xlink:href="#linear-gradient-38"/><linearGradient id="linear-gradient-41" x1="259.12" y1="226.93" x2="320.22" y2="226.93" gradientUnits="userSpaceOnUse"><stop offset="0" stop-color="#07154b"/><stop offset="0.26" stop-color="#0c174e"/><stop offset="0.58" stop-color="#1b1d57"/><stop offset="0.93" stop-color="#332767"/><stop offset="1" stop-color="#39296a"/></linearGradient><linearGradient id="linear-gradient-42" x1="284.82" y1="235.19" x2="294.53" y2="235.19" xlink:href="#linear-gradient-41"/><linearGradient id="linear-gradient-43" x1="287.74" y1="245.93" x2="291.61" y2="245.93" xlink:href="#linear-gradient-41"/><linearGradient id="linear-gradient-44" x1="287.2" y1="265.84" x2="292.15" y2="265.84" gradientUnits="userSpaceOnUse"><stop offset="0" stop-color="#0064b1"/><stop offset="0.21" stop-color="#0d4685"/><stop offset="0.46" stop-color="#1a2858"/><stop offset="0.69" stop-color="#231237"/><stop offset="0.87" stop-color="#290523"/><stop offset="1" stop-color="#2b001c"/></linearGradient><linearGradient id="linear-gradient-45" x1="280.91" y1="231.56" x2="298.44" y2="231.56" xlink:href="#linear-gradient-41"/><linearGradient id="linear-gradient-46" x1="4214.6" y1="600.82" x2="4214.6" y2="563.85" gradientTransform="matrix(-1, 0, 0, 1, 5162.33, 0)" xlink:href="#linear-gradient-44"/><linearGradient id="linear-gradient-47" x1="4195.72" y1="600.82" x2="4195.72" y2="563.85" gradientTransform="matrix(-1, 0, 0, 1, 5162.33, 0)" gradientUnits="userSpaceOnUse"><stop offset="0" stop-color="#48b8fa" stop-opacity="0.8"/><stop offset="0.18" stop-color="#4abbfa" stop-opacity="0.81"/><stop offset="0.38" stop-color="#50c4fb" stop-opacity="0.83"/><stop offset="0.59" stop-color="#5ad3fc" stop-opacity="0.88"/><stop offset="0.81" stop-color="#69e7fd" stop-opacity="0.94"/><stop offset="1" stop-color="#78fdfe"/></linearGradient><linearGradient id="linear-gradient-48" x1="921.57" y1="654.97" x2="946.33" y2="654.97" xlink:href="#linear-gradient-41"/><linearGradient id="linear-gradient-49" x1="922.53" y1="663.27" x2="928.64" y2="663.27" gradientUnits="userSpaceOnUse"><stop offset="0" stop-color="#071786"/><stop offset="0.15" stop-color="#05136b"/><stop offset="0.32" stop-color="#041055"/><stop offset="0.51" stop-color="#030e45"/><stop offset="0.72" stop-color="#020c3b"/><stop offset="1" stop-color="#020c38"/></linearGradient><linearGradient id="linear-gradient-50" x1="949.11" y1="654.97" x2="973.88" y2="654.97" xlink:href="#linear-gradient-41"/><linearGradient id="linear-gradient-51" x1="966.81" y1="663.27" x2="972.92" y2="663.27" xlink:href="#linear-gradient-49"/><linearGradient id="linear-gradient-52" x1="3698.06" y1="543.34" x2="3737.26" y2="543.34" gradientTransform="matrix(1, 0.01, 0.01, -1, -2676.12, 1059.95)" xlink:href="#linear-gradient-41"/><linearGradient id="linear-gradient-53" x1="3735.1" y1="526.6" x2="3764.44" y2="526.6" gradientTransform="matrix(0.62, -0.79, -0.79, -0.62, -884.54, 3803.27)" xlink:href="#linear-gradient-41"/><linearGradient id="linear-gradient-54" x1="3983.66" y1="648.03" x2="4016.64" y2="648.03" gradientTransform="matrix(-1, 0, 0, 1, 5054.09, 0)" xlink:href="#linear-gradient-38"/><linearGradient id="linear-gradient-55" x1="3873.99" y1="653.69" x2="3906.97" y2="653.69" gradientTransform="matrix(-1, 0, 0, 1, 4944.43, 0)" xlink:href="#linear-gradient-49"/><linearGradient id="linear-gradient-56" x1="1021.31" y1="565.36" x2="1069.61" y2="571.06" xlink:href="#linear-gradient-49"/><linearGradient id="linear-gradient-57" x1="1017.79" y1="595.22" x2="1066.08" y2="600.92" xlink:href="#linear-gradient-49"/><linearGradient id="linear-gradient-58" x1="5151.82" y1="4011.84" x2="5239.43" y2="4011.84" gradientTransform="translate(-3344.28 5320.1) rotate(-84.68)" xlink:href="#linear-gradient-44"/><linearGradient id="linear-gradient-59" x1="1131.74" y1="563.46" x2="1146.71" y2="563.46" xlink:href="#linear-gradient-41"/><linearGradient id="linear-gradient-60" x1="419.93" y1="226.93" x2="481.03" y2="226.93" xlink:href="#linear-gradient-41"/><linearGradient id="linear-gradient-61" x1="445.62" y1="235.19" x2="455.34" y2="235.19" xlink:href="#linear-gradient-41"/><linearGradient id="linear-gradient-62" x1="448.55" y1="245.93" x2="452.41" y2="245.93" xlink:href="#linear-gradient-41"/><linearGradient id="linear-gradient-63" x1="448" y1="265.84" x2="452.96" y2="265.84" xlink:href="#linear-gradient-44"/><linearGradient id="linear-gradient-64" x1="441.71" y1="231.56" x2="459.25" y2="231.56" xlink:href="#linear-gradient-41"/><linearGradient id="linear-gradient-65" x1="4053.8" y1="600.82" x2="4053.8" y2="563.85" gradientTransform="matrix(-1, 0, 0, 1, 5162.33, 0)" xlink:href="#linear-gradient-44"/><linearGradient id="linear-gradient-66" x1="4034.92" y1="600.82" x2="4034.92" y2="563.85" xlink:href="#linear-gradient-47"/><linearGradient id="linear-gradient-67" x1="1082.37" y1="654.97" x2="1107.13" y2="654.97" xlink:href="#linear-gradient-41"/><linearGradient id="linear-gradient-68" x1="1083.33" y1="663.27" x2="1089.44" y2="663.27" xlink:href="#linear-gradient-49"/><linearGradient id="linear-gradient-69" x1="1109.92" y1="654.97" x2="1134.68" y2="654.97" xlink:href="#linear-gradient-41"/><linearGradient id="linear-gradient-70" x1="1127.61" y1="663.27" x2="1133.72" y2="663.27" xlink:href="#linear-gradient-49"/><linearGradient id="linear-gradient-71" x1="3943.51" y1="31.62" x2="3983.67" y2="31.62" gradientTransform="matrix(-0.99, -0.17, -0.17, 0.99, 5032.09, 1141.25)" xlink:href="#linear-gradient-49"/><linearGradient id="linear-gradient-72" x1="3961.16" y1="10.29" x2="3993.1" y2="10.29" gradientTransform="matrix(-0.99, -0.17, -0.17, 0.99, 5032.09, 1141.25)" xlink:href="#linear-gradient-49"/><linearGradient id="linear-gradient-73" x1="4083.15" y1="39.78" x2="4083.15" y2="22.41" gradientTransform="matrix(-0.99, -0.17, -0.17, 0.99, 5140.17, 1159.84)" xlink:href="#linear-gradient-38"/><linearGradient id="linear-gradient-74" x1="4084.99" y1="3.57" x2="4099.59" y2="28.86" gradientTransform="matrix(-0.99, -0.17, -0.17, 0.99, 5140.17, 1159.84)" xlink:href="#linear-gradient-38"/><linearGradient id="linear-gradient-75" x1="3967.19" y1="6.17" x2="3989.95" y2="6.17" gradientTransform="matrix(-0.99, -0.17, -0.17, 0.99, 5032.09, 1141.25)" xlink:href="#linear-gradient-49"/><linearGradient id="linear-gradient-76" x1="3941.96" y1="483.37" x2="3935.96" y2="483.37" gradientTransform="matrix(-1, 0, 0, 1, 5054.09, 0)" xlink:href="#linear-gradient-38"/><linearGradient id="linear-gradient-77" x1="3941.08" y1="645.68" x2="3963.78" y2="645.68" gradientTransform="matrix(-1, 0, 0, 1, 5054.09, 0)" xlink:href="#linear-gradient-38"/><linearGradient id="linear-gradient-78" x1="3916.56" y1="714.77" x2="3935.54" y2="714.77" gradientTransform="matrix(-1, -0.03, -0.03, 1, 5048.71, 54.2)" xlink:href="#linear-gradient-49"/><linearGradient id="linear-gradient-79" x1="1079.94" y1="599.62" x2="1115.76" y2="631.52" xlink:href="#linear-gradient-49"/><linearGradient id="linear-gradient-80" x1="1099.28" y1="577.91" x2="1135.1" y2="609.81" xlink:href="#linear-gradient-49"/><linearGradient id="linear-gradient-81" x1="3747.29" y1="564.57" x2="3747.29" y2="490.07" gradientTransform="matrix(-0.97, 0, 0, 1, 4750.56, 18.37)" gradientUnits="userSpaceOnUse"><stop offset="0" stop-color="#f9fbfc"/><stop offset="0.29" stop-color="#f1f6fd"/><stop offset="0.73" stop-color="#dde6fe"/><stop offset="1" stop-color="#cddbff"/></linearGradient><linearGradient id="linear-gradient-82" x1="4866.52" y1="903.72" x2="4847.85" y2="892.94" gradientTransform="matrix(-0.98, -0.18, -0.18, 0.98, 6005, 558.58)" xlink:href="#linear-gradient-38"/><linearGradient id="linear-gradient-83" x1="4274.24" y1="793.77" x2="4275.93" y2="780.22" gradientTransform="matrix(-0.99, -0.12, -0.12, 0.99, 4791.81, -123.5)" gradientUnits="userSpaceOnUse"><stop offset="0" stop-color="#f9fbfc"/><stop offset="0.31" stop-color="#f0f5fd"/><stop offset="0.8" stop-color="#d8e3fe"/><stop offset="1" stop-color="#cddbff"/></linearGradient><linearGradient id="linear-gradient-84" x1="4281.39" y1="796.1" x2="4282.07" y2="790.62" gradientTransform="matrix(-0.99, -0.12, -0.12, 0.99, 4791.81, -123.5)" gradientUnits="userSpaceOnUse"><stop offset="0" stop-color="#e7e6ff"/><stop offset="0.34" stop-color="#c9d2f8"/><stop offset="0.76" stop-color="#aabdf1"/><stop offset="1" stop-color="#9eb5ee"/></linearGradient><linearGradient id="linear-gradient-85" x1="743.37" y1="600.7" x2="743.37" y2="549.5" xlink:href="#linear-gradient-41"/><linearGradient id="linear-gradient-86" x1="732.62" y1="545.4" x2="780.01" y2="545.4" xlink:href="#linear-gradient-44"/><linearGradient id="linear-gradient-87" x1="3166.37" y1="603.33" x2="3227.47" y2="603.33" gradientTransform="matrix(1, 0, 0, -1, -2423.57, 1206.65)" xlink:href="#linear-gradient-41"/><linearGradient id="linear-gradient-88" x1="3192.07" y1="611.58" x2="3201.78" y2="611.58" gradientTransform="matrix(1, 0, 0, -1, -2423.57, 1223.17)" xlink:href="#linear-gradient-41"/><linearGradient id="linear-gradient-89" x1="3194.99" y1="622.32" x2="3198.86" y2="622.32" gradientTransform="matrix(1, 0, 0, -1, -2423.57, 1244.65)" xlink:href="#linear-gradient-41"/><linearGradient id="linear-gradient-90" x1="3194.45" y1="642.23" x2="3199.4" y2="642.23" gradientTransform="matrix(1, 0, 0, -1, -2423.57, 1284.46)" xlink:href="#linear-gradient-44"/><linearGradient id="linear-gradient-91" x1="3188.16" y1="607.95" x2="3205.69" y2="607.95" gradientTransform="matrix(-1, 0, 0, 1, 3312.23, -376.39)" xlink:href="#linear-gradient-41"/><linearGradient id="linear-gradient-92" x1="1965.4" y1="600.82" x2="1965.4" y2="563.85" gradientTransform="translate(-1192.05)" xlink:href="#linear-gradient-44"/><linearGradient id="linear-gradient-93" x1="1946.52" y1="600.82" x2="1946.52" y2="563.85" gradientTransform="translate(-1192.05)" xlink:href="#linear-gradient-47"/><linearGradient id="linear-gradient-94" x1="3170.77" y1="654.97" x2="3195.53" y2="654.97" gradientTransform="matrix(-1, 0, 0, 1, 3970.28, 0)" xlink:href="#linear-gradient-41"/><linearGradient id="linear-gradient-95" x1="3171.73" y1="663.27" x2="3177.84" y2="663.27" gradientTransform="matrix(-1, 0, 0, 1, 3970.28, 0)" xlink:href="#linear-gradient-49"/><linearGradient id="linear-gradient-96" x1="3198.32" y1="654.97" x2="3223.08" y2="654.97" gradientTransform="matrix(-1, 0, 0, 1, 3970.28, 0)" xlink:href="#linear-gradient-41"/><linearGradient id="linear-gradient-97" x1="3216.01" y1="663.27" x2="3222.12" y2="663.27" gradientTransform="matrix(-1, 0, 0, 1, 3970.28, 0)" xlink:href="#linear-gradient-49"/><linearGradient id="linear-gradient-98" x1="283.98" y1="2375.5" x2="284.21" y2="2424.43" gradientTransform="matrix(0.51, -0.86, 0.86, 0.51, -1395.23, -470.9)" gradientUnits="userSpaceOnUse"><stop offset="0" stop-color="#f9fbfc"/><stop offset="1" stop-color="#fff"/></linearGradient><linearGradient id="linear-gradient-99" x1="1552.63" y1="843.77" x2="1570.47" y2="843.77" gradientTransform="translate(-694.17 1406.14) rotate(-60.06)" gradientUnits="userSpaceOnUse"><stop offset="0" stop-color="#ffd1c1"/><stop offset="0.49" stop-color="#ffcfbf"/><stop offset="0.66" stop-color="#ffcab8"/><stop offset="0.79" stop-color="#ffc0ad"/><stop offset="0.89" stop-color="#ffb29c"/><stop offset="0.98" stop-color="#ffa086"/><stop offset="1" stop-color="#ff9a7f"/></linearGradient><linearGradient id="linear-gradient-100" x1="1560.88" y1="866.42" x2="1531.91" y2="866.42" gradientTransform="translate(-694.17 1406.14) rotate(-60.06)" xlink:href="#linear-gradient-98"/><linearGradient id="linear-gradient-101" x1="845.68" y1="661.02" x2="845.68" y2="631.69" gradientUnits="userSpaceOnUse"><stop offset="0" stop-color="#ffd1c1"/><stop offset="0.28" stop-color="#ffcebe"/><stop offset="0.51" stop-color="#ffc6b4"/><stop offset="0.72" stop-color="#ffb8a2"/><stop offset="0.92" stop-color="#ffa48b"/><stop offset="1" stop-color="#ff9a7f"/></linearGradient><linearGradient id="linear-gradient-102" x1="826.12" y1="651.94" x2="864.78" y2="651.94" xlink:href="#linear-gradient-49"/><linearGradient id="linear-gradient-103" x1="-81.09" y1="2104.56" x2="-106.47" y2="2069.01" gradientTransform="matrix(0.81, 0.58, -0.58, 0.81, 2074.02, -999.29)" xlink:href="#linear-gradient-101"/><linearGradient id="linear-gradient-104" x1="-108.79" y1="2089.48" x2="-70.13" y2="2089.48" gradientTransform="matrix(0.81, 0.58, -0.58, 0.81, 2074.02, -999.29)" xlink:href="#linear-gradient-49"/><linearGradient id="linear-gradient-105" x1="828.22" y1="551.62" x2="768.06" y2="586.36" xlink:href="#linear-gradient-49"/><linearGradient id="linear-gradient-106" x1="830.11" y1="564.34" x2="830.11" y2="639.16" xlink:href="#linear-gradient-49"/><linearGradient id="linear-gradient-107" x1="791.71" y1="592.09" x2="791.71" y2="560.34" xlink:href="#linear-gradient-49"/><linearGradient id="linear-gradient-108" x1="777.21" y1="563.52" x2="777.21" y2="495.26" gradientUnits="userSpaceOnUse"><stop offset="0" stop-color="#ffd1c1"/><stop offset="0.22" stop-color="#fcb"/><stop offset="0.51" stop-color="#ffbeab"/><stop offset="0.83" stop-color="#ffa890"/><stop offset="1" stop-color="#ff9a7f"/></linearGradient><linearGradient id="linear-gradient-109" x1="803.16" y1="547.39" x2="748.75" y2="515.98" gradientTransform="matrix(1, 0, 0, 1, 0, 0)" xlink:href="#linear-gradient-81"/><linearGradient id="linear-gradient-110" x1="126.37" y1="134.38" x2="126.37" y2="125.28" gradientUnits="userSpaceOnUse"><stop offset="0" stop-color="#071786"/><stop offset="0.2" stop-color="#071681"/><stop offset="0.45" stop-color="#061472"/><stop offset="0.72" stop-color="#04115a"/><stop offset="1" stop-color="#020c38"/></linearGradient><linearGradient id="linear-gradient-111" x1="138.47" y1="159.32" x2="117.18" y2="147.02" gradientUnits="userSpaceOnUse"><stop offset="0" stop-color="#071786"/><stop offset="0.2" stop-color="#07167e"/><stop offset="0.5" stop-color="#051369"/><stop offset="0.86" stop-color="#030e47"/><stop offset="1" stop-color="#020c38"/></linearGradient><linearGradient id="linear-gradient-112" x1="778.86" y1="478.44" x2="778.86" y2="500.22" gradientUnits="userSpaceOnUse"><stop offset="0" stop-color="#ffd1c1"/><stop offset="0.29" stop-color="#ffcebe"/><stop offset="0.51" stop-color="#ffc6b4"/><stop offset="0.72" stop-color="#ffb8a3"/><stop offset="0.92" stop-color="#ffa58c"/><stop offset="1" stop-color="#ff9a7f"/></linearGradient><linearGradient id="linear-gradient-113" x1="815.82" y1="726.42" x2="839.24" y2="726.42" gradientTransform="translate(-105.37 -171.78) rotate(-5.2)" xlink:href="#linear-gradient-99"/><linearGradient id="linear-gradient-114" x1="835.82" y1="725.68" x2="840.57" y2="725.68" gradientTransform="translate(-763.42 -548.17) rotate(-5.2)" gradientUnits="userSpaceOnUse"><stop offset="0" stop-color="#eea281"/><stop offset="0.25" stop-color="#ee9c7b"/><stop offset="0.58" stop-color="#ed8a6c"/><stop offset="0.97" stop-color="#ec6e52"/><stop offset="1" stop-color="#ec6b50"/></linearGradient><linearGradient id="linear-gradient-115" x1="807.07" y1="717.05" x2="843.41" y2="717.05" gradientTransform="translate(-105.37 -171.78) rotate(-5.2)" xlink:href="#linear-gradient-49"/><linearGradient id="linear-gradient-116" x1="818.34" y1="722.41" x2="812.9" y2="725.55" gradientTransform="translate(-105.37 -171.78) rotate(-5.2)" gradientUnits="userSpaceOnUse"><stop offset="0" stop-color="#ffd1c1"/><stop offset="0.23" stop-color="#ffcdbc"/><stop offset="0.49" stop-color="#ffc1ae"/><stop offset="0.78" stop-color="#ffad96"/><stop offset="1" stop-color="#ff9a7f"/></linearGradient><linearGradient id="linear-gradient-117" x1="145.37" y1="120.23" x2="156.1" y2="120.23" xlink:href="#linear-gradient-41"/><linearGradient id="linear-gradient-118" x1="756.57" y1="528.1" x2="783.32" y2="528.1" gradientTransform="matrix(1, 0, 0, 1, 0, 0)" xlink:href="#linear-gradient-98"/><linearGradient id="linear-gradient-119" x1="794.92" y1="504.73" x2="814.45" y2="504.73" gradientTransform="matrix(1, 0, 0, 1, 0, 0)" xlink:href="#linear-gradient-99"/><linearGradient id="linear-gradient-120" x1="768.91" y1="531.27" x2="804.08" y2="531.27" gradientTransform="matrix(1, 0, 0, 1, 0, 0)" xlink:href="#linear-gradient-98"/><linearGradient id="linear-gradient-121" x1="-83.33" y1="2066.36" x2="-121.48" y2="2012.92" gradientTransform="matrix(0.81, 0.58, -0.58, 0.81, 2074.02, -999.29)" xlink:href="#linear-gradient-49"/><linearGradient id="linear-gradient-122" x1="-252.91" y1="504.14" x2="-252.91" y2="491.43" gradientTransform="translate(1039.6)" xlink:href="#linear-gradient-84"/><linearGradient id="linear-gradient-123" x1="-249.61" y1="502.4" x2="-249.61" y2="490.71" gradientTransform="translate(381.55 -376.39)" gradientUnits="userSpaceOnUse"><stop offset="0" stop-color="#f9fbfc"/><stop offset="1" stop-color="#cddbff"/></linearGradient><linearGradient id="linear-gradient-124" x1="-263.69" y1="505.76" x2="-263.69" y2="490.63" gradientTransform="translate(381.55 -376.39)" xlink:href="#linear-gradient-83"/><linearGradient id="linear-gradient-125" x1="-256.75" y1="504.14" x2="-256.75" y2="500.25" gradientTransform="translate(381.55 -376.39)" xlink:href="#linear-gradient-84"/><linearGradient id="linear-gradient-126" x1="1960.13" y1="-61.62" x2="1945.85" y2="-21.14" gradientTransform="translate(-847.41 1223.5) rotate(-19.43)" xlink:href="#linear-gradient-112"/><linearGradient id="linear-gradient-127" x1="1959.87" y1="-64.71" x2="1939.02" y2="-46.86" gradientTransform="translate(-847.41 1223.5) rotate(-19.43)" xlink:href="#linear-gradient-81"/><linearGradient id="linear-gradient-128" x1="5924.87" y1="1337.18" x2="5910.59" y2="1377.65" gradientTransform="matrix(-0.94, -0.33, -0.33, 0.94, 6946.58, 1223.5)" xlink:href="#linear-gradient-112"/><linearGradient id="linear-gradient-129" x1="5923.05" y1="1327.69" x2="5912.65" y2="1357.16" gradientTransform="matrix(-0.94, -0.33, -0.33, 0.94, 6946.58, 1223.5)" xlink:href="#linear-gradient-81"/><linearGradient id="linear-gradient-130" x1="897.62" y1="575.59" x2="997.82" y2="575.59" xlink:href="#linear-gradient-49"/><linearGradient id="linear-gradient-131" x1="948.17" y1="500.27" x2="948.17" y2="570.27" gradientTransform="matrix(1, 0, 0, 1, 0, 0)" xlink:href="#linear-gradient-81"/><linearGradient id="linear-gradient-132" x1="287.85" y1="143.62" x2="287.85" y2="135.59" xlink:href="#linear-gradient-110"/><linearGradient id="linear-gradient-133" x1="303.16" y1="171.64" x2="277.36" y2="156.74" xlink:href="#linear-gradient-111"/><linearGradient id="linear-gradient-134" x1="293.15" y1="137.23" x2="286.45" y2="122.13" gradientUnits="userSpaceOnUse"><stop offset="0" stop-color="#ffd1c1"/><stop offset="0.3" stop-color="#ffc4b1"/><stop offset="0.88" stop-color="#ffa288"/><stop offset="1" stop-color="#ff9a7f"/></linearGradient><linearGradient id="linear-gradient-135" x1="2262.25" y1="-88.19" x2="2262.25" y2="-104.4" gradientTransform="matrix(-0.87, 0.5, 0.5, 0.87, 2950.4, -534.14)" xlink:href="#linear-gradient-84"/><linearGradient id="linear-gradient-136" x1="2259.86" y1="-104.4" x2="2268.2" y2="-89.84" gradientTransform="matrix(-0.87, 0.5, 0.5, 0.87, 2292.35, -910.54)" gradientUnits="userSpaceOnUse"><stop offset="0" stop-color="#f9fbfc"/><stop offset="0.3" stop-color="#f5f8fc"/><stop offset="0.6" stop-color="#e9effd"/><stop offset="0.91" stop-color="#d4e0fe"/><stop offset="1" stop-color="#cddbff"/></linearGradient><linearGradient id="linear-gradient-137" x1="-1067.4" y1="1818.5" x2="-1067.4" y2="1802.28" gradientTransform="translate(2778.39 -534.14) rotate(29.8)" xlink:href="#linear-gradient-84"/><linearGradient id="linear-gradient-138" x1="-1069.83" y1="1802.18" x2="-1061.49" y2="1816.74" gradientTransform="translate(2120.34 -910.54) rotate(29.8)" xlink:href="#linear-gradient-136"/><linearGradient id="linear-gradient-139" x1="994.9" y1="666.28" x2="994.9" y2="631.19" xlink:href="#linear-gradient-101"/><linearGradient id="linear-gradient-140" x1="977.96" y1="655.81" x2="1011.84" y2="655.81" xlink:href="#linear-gradient-49"/><linearGradient id="linear-gradient-141" x1="988.53" y1="639.15" x2="988.53" y2="573.53" xlink:href="#linear-gradient-49"/><linearGradient id="linear-gradient-142" x1="900.54" y1="666.28" x2="900.54" y2="631.19" xlink:href="#linear-gradient-101"/><linearGradient id="linear-gradient-143" x1="883.61" y1="655.81" x2="917.48" y2="655.81" xlink:href="#linear-gradient-49"/><linearGradient id="linear-gradient-144" x1="906.91" y1="573.53" x2="906.91" y2="639.15" xlink:href="#linear-gradient-49"/><linearGradient id="linear-gradient-145" x1="3031.71" y1="-263.98" x2="3017.22" y2="-245.66" gradientTransform="translate(-1244.29 2615.09) rotate(-38.35)" gradientUnits="userSpaceOnUse"><stop offset="0" stop-color="#ffd1c1"/><stop offset="0.22" stop-color="#ffccba"/><stop offset="0.53" stop-color="#ffbca8"/><stop offset="0.89" stop-color="#ffa38a"/><stop offset="1" stop-color="#ff9a7f"/></linearGradient><linearGradient id="linear-gradient-146" x1="6327.6" y1="2343.9" x2="6313.11" y2="2362.22" gradientTransform="matrix(-0.78, -0.62, -0.62, 0.78, 7343.46, 2615.09)" xlink:href="#linear-gradient-145"/><linearGradient id="linear-gradient-147" x1="142.1" y1="234.13" x2="152.56" y2="234.13" xlink:href="#linear-gradient-41"/><linearGradient id="linear-gradient-148" x1="392.53" y1="234.13" x2="403" y2="234.13" xlink:href="#linear-gradient-41"/><linearGradient id="linear-gradient-149" x1="4727.16" y1="548.32" x2="4452.18" y2="548.32" gradientTransform="matrix(1, 0, 0, -1, -3659.08, 1096.63)" gradientUnits="userSpaceOnUse"><stop offset="0" stop-color="#0e090f"/><stop offset="0.15" stop-color="#160e18"/><stop offset="0.69" stop-color="#2f1e33"/><stop offset="1" stop-color="#38243d"/></linearGradient><linearGradient id="linear-gradient-150" x1="340.62" y1="110.13" x2="204.48" y2="246.27" gradientTransform="matrix(1, 0, 0, 1, 0, 0)" xlink:href="#linear-gradient-149"/><linearGradient id="linear-gradient-151" x1="263.81" y1="151.95" x2="334.84" y2="151.95" xlink:href="#linear-gradient-41"/><linearGradient id="linear-gradient-152" x1="-4590.27" y1="491.25" x2="-4563.06" y2="491.25" gradientTransform="matrix(-1, 0, 0, 1, -3630.17, 0)" xlink:href="#linear-gradient-99"/><linearGradient id="linear-gradient-153" x1="-4566.91" y1="490.39" x2="-4561.35" y2="490.39" gradientTransform="matrix(-1, 0, 0, 1, -4288.21, -376.39)" xlink:href="#linear-gradient-114"/><linearGradient id="linear-gradient-154" x1="-4601.46" y1="480.64" x2="-4554.45" y2="480.64" gradientTransform="matrix(-1, 0, 0, 1, -3630.17, 0)" xlink:href="#linear-gradient-49"/><linearGradient id="linear-gradient-155" x1="-4587.33" y1="486.56" x2="-4593.69" y2="490.23" gradientTransform="matrix(-1, 0, 0, 1, -3630.17, 0)" xlink:href="#linear-gradient-116"/><linearGradient id="linear-gradient-156" x1="911.63" y1="475.21" x2="911.63" y2="429.03" gradientUnits="userSpaceOnUse"><stop offset="0" stop-color="#b2b1b9"/><stop offset="0.3" stop-color="#89919d"/><stop offset="0.77" stop-color="#4b6274"/><stop offset="1" stop-color="#334f64"/></linearGradient><linearGradient id="linear-gradient-157" x1="456.52" y1="98.82" x2="456.52" y2="52.64" xlink:href="#linear-gradient-156"/><linearGradient id="linear-gradient-158" x1="450" y1="98.82" x2="450" y2="52.64" xlink:href="#linear-gradient-156"/><linearGradient id="linear-gradient-159" x1="827.87" y1="475.21" x2="827.87" y2="429.03" xlink:href="#linear-gradient-156"/></defs><g class="cls-1"><g id="Layer_1" data-name="Layer 1"><ellipse class="cls-2" cx="288.37" cy="284.63" rx="263.99" ry="8.31"/><path class="cls-3" d="M1207.53,603.83H688.59s-1-120.22,31.86-158.25,106.87,58.58,135.64,32.89S889,383.93,943.44,376.73s62.68,101.74,95.57,110,66.77-55.49,100.7-55.49C1206.5,431.2,1207.53,603.83,1207.53,603.83Z" transform="translate(-658.05 -376.39)"/><path class="cls-4" d="M1210.73,534.22s-3.37-13,.9-13C1216.58,521.33,1214.87,527.85,1210.73,534.22Z" transform="translate(-658.05 -376.39)"/><path class="cls-5" d="M1208.87,540.54s-12.08-5.89-9.26-9.1C1202.88,527.72,1206.72,533.25,1208.87,540.54Z" transform="translate(-658.05 -376.39)"/><path class="cls-6" d="M1209.14,540.73s13.42-.82,12-4.86C1219.6,531.18,1213.93,534.82,1209.14,540.73Z" transform="translate(-658.05 -376.39)"/><path class="cls-7" d="M1205.9,552.93s16.52-1,14.83-6C1218.77,541.16,1211.79,545.65,1205.9,552.93Z" transform="translate(-658.05 -376.39)"/><path class="cls-8" d="M1202.46,563.17s18.5,3.23,17.94-2.72C1219.75,553.56,1210.87,556.68,1202.46,563.17Z" transform="translate(-658.05 -376.39)"/><path class="cls-9" d="M1197.41,574.91s19.15,3.34,18.58-2.82C1215.31,565,1206.12,568.19,1197.41,574.91Z" transform="translate(-658.05 -376.39)"/><path class="cls-10" d="M1205.78,553.3s-13.24-10-9-13.27C1201.59,536.3,1204.93,543.94,1205.78,553.3Z" transform="translate(-658.05 -376.39)"/><path class="cls-11" d="M1202.45,563s-18.17-10.11-13.55-14.83C1194.25,542.71,1199.73,551.57,1202.45,563Z" transform="translate(-658.05 -376.39)"/><path class="cls-12" d="M1197.25,574.81s-16.16-9-12-13.18C1190,556.76,1194.83,564.64,1197.25,574.81Z" transform="translate(-658.05 -376.39)"/><path class="cls-13" d="M1191.26,586.07s21.39,3.73,20.75-3.14C1211.26,575,1201,578.57,1191.26,586.07Z" transform="translate(-658.05 -376.39)"/><path class="cls-14" d="M1191.07,586s-18-10-13.45-14.73C1182.94,565.8,1188.37,574.61,1191.07,586Z" transform="translate(-658.05 -376.39)"/><path class="cls-15" d="M1179.3,604.14l-.92-.74c28-34.9,32.41-73.3,32.45-73.69l1.17.13C1212,530.23,1207.54,569,1179.3,604.14Z" transform="translate(-658.05 -376.39)"/><path class="cls-16" d="M1183.31,573.63c-1-4.68-3.73-12.58-9.85-11.91a5.73,5.73,0,0,0-4.11,3.12c-2,3.6-3.21,14.29-9.11,14-5.56-.3-1.35-6.9.33-8.89,2.12-2.52,4.61-4.89,4.38-8.38-.34-5.37-5.21-9.21-5.1-14.72.13-6,7.45-7.83,10.36-12.35,11.38-17.68-30.22-37.46-32.69-15.07-.68,6.16,3.27,11.73,3.67,17.76.47,7.05-4.3,8.66-8.7,12.94-3.53,3.45-3,7.5-3.57,11.91-.48,3.52-5.08,10.57-6.84,3.36s6.24-10.12,6.91-16.3c.76-6.91-10.19-11.18-15.18-7.46-4.44,3.3-4.37,10-3.69,15,.43,3.11,8.9,15.71,1.27,15.4-3.8-.15-7.07,1.37-5.72,5.84,1.3,4.28,5.81,5.49,9.2,7.61,2.38,1.49,6.57,4.69,3.39,7.54l.55-.49a14.3,14.3,0,0,0-1.57,2.4,10.46,10.46,0,0,0-.4,9.47H1129a23.49,23.49,0,0,0,.69-11.15c-1-4.86-3.39-9.28-6-13.48l-1-1.59-1-1.67-.49-.84-.4-.89c-.27-.59-.54-1.17-.79-1.77a30.82,30.82,0,0,1-1.78-7.56,30.47,30.47,0,0,1,2.36-15.06,33,33,0,0,0-1.38,7.42,34.59,34.59,0,0,0,.21,7.48,32.66,32.66,0,0,0,1.93,7.13,42.49,42.49,0,0,0,3.59,6.47,58.65,58.65,0,0,1,3.65,6.71,28.92,28.92,0,0,1,2.26,7.43,20.66,20.66,0,0,1-.3,7.76,29.14,29.14,0,0,1-1.14,3.61H1143l-.33-.43a22.4,22.4,0,0,1-2.56-4.87,29.47,29.47,0,0,1-1.46-11c.34-7.46,2.54-14.58,4.87-21.47l3.64-10.29c.6-1.71,1.15-3.43,1.61-5.16s.8-3.5,1.1-5.28a61.27,61.27,0,0,0,.7-10.84,95.11,95.11,0,0,0-.78-10.91A80.72,80.72,0,0,1,1151.3,535a61.74,61.74,0,0,1-.29,11,52.36,52.36,0,0,1-2.5,10.77c-1.14,3.48-2.4,6.89-3.56,10.33s-2.31,6.87-3.23,10.37a62,62,0,0,0-1.91,10.63,28.8,28.8,0,0,0,1,10.66,22.25,22.25,0,0,0,2.18,4.88c.15.23.3.46.46.68h22.1c.82-1.33,1.59-2.68,2.3-4.07a56.65,56.65,0,0,0,5.45-16.82c.28-1.47.39-3,.56-4.45s.16-3,.31-4.52c.19,1.5.41,3,.45,4.54a38.92,38.92,0,0,1-.12,4.58,39.55,39.55,0,0,1-1.8,9,38.49,38.49,0,0,1-3.81,8.29,34.12,34.12,0,0,1-2.4,3.44h5.94C1181.17,597.13,1186,585.86,1183.31,573.63Z" transform="translate(-658.05 -376.39)"/><path class="cls-17" d="M668.6,531.71s3.38-13-.89-13C662.75,518.82,664.46,525.33,668.6,531.71Z" transform="translate(-658.05 -376.39)"/><path class="cls-18" d="M670.46,538s12.08-5.89,9.26-9.1C676.46,525.2,672.61,530.74,670.46,538Z" transform="translate(-658.05 -376.39)"/><path class="cls-19" d="M670.19,538.22s-13.42-.82-12-4.87C659.74,528.66,665.41,532.3,670.19,538.22Z" transform="translate(-658.05 -376.39)"/><path class="cls-20" d="M673.44,550.42s-16.53-1-14.84-6C660.56,538.65,667.55,543.13,673.44,550.42Z" transform="translate(-658.05 -376.39)"/><path class="cls-21" d="M676.88,560.66s-18.51,3.23-18-2.72C659.58,551.05,668.47,554.17,676.88,560.66Z" transform="translate(-658.05 -376.39)"/><path class="cls-22" d="M681.92,572.39s-19.15,3.34-18.57-2.81C664,562.45,673.22,565.67,681.92,572.39Z" transform="translate(-658.05 -376.39)"/><path class="cls-23" d="M673.55,550.79s13.24-10,9.05-13.27C677.74,533.79,674.41,541.43,673.55,550.79Z" transform="translate(-658.05 -376.39)"/><path class="cls-24" d="M676.89,560.5s18.17-10.1,13.55-14.83C685.08,540.2,679.61,549.06,676.89,560.5Z" transform="translate(-658.05 -376.39)"/><path class="cls-25" d="M682.09,572.3s16.15-9,12-13.18C689.37,554.25,684.5,562.13,682.09,572.3Z" transform="translate(-658.05 -376.39)"/><path class="cls-26" d="M688.07,583.56s-21.39,3.73-20.74-3.14C668.08,572.45,678.35,576.06,688.07,583.56Z" transform="translate(-658.05 -376.39)"/><path class="cls-27" d="M688.26,583.46s18-10,13.45-14.73C696.4,563.29,691,572.1,688.26,583.46Z" transform="translate(-658.05 -376.39)"/><path class="cls-28" d="M700,601.63l.92-.74c-28-34.91-32.41-73.31-32.46-73.69l-1.17.13C667.37,527.71,671.8,566.44,700,601.63Z" transform="translate(-658.05 -376.39)"/><path class="cls-29" d="M728.1,529.57c-.66-2.68-2.1-6.35-5.83-5.08-7.64,2.61-12.84,40.65-12.69,79.13h17.6c.48,0,3.43-33.82,3.62-36.89C731.54,554.31,731.11,541.69,728.1,529.57Zm-5.59,35.82c-.69,11-1.56,21.91-3.12,32.81-.23-11,.23-22,.86-32.94s1.57-21.91,3.12-32.81C723.6,543.46,723.14,554.43,722.51,565.39Z" transform="translate(-658.05 -376.39)"/><path class="cls-30" d="M699.18,549.11c-4.8-.87-1.42,42.6,0,54.51H713C712.4,594.55,709.22,550.92,699.18,549.11ZM703,577.38c-.48-3.5-.93-7-1.25-10.53s-.59-7.05-.63-10.61c1,3.43,1.71,6.89,2.37,10.36s1.23,7,1.75,10.46.93,7,1.26,10.52.59,7.06.62,10.62c-1-3.43-1.71-6.89-2.38-10.37S703.47,580.87,703,577.38Z" transform="translate(-658.05 -376.39)"/><path class="cls-31" d="M749.9,551.92c-7.42-4.92-22.72,38.65-27.54,51.7h18.7C742.58,601.46,756.45,556.26,749.9,551.92Zm-5,16.66c-.8,3.41-1.73,6.78-2.68,10.15s-2,6.7-3.16,10-2.35,6.61-3.78,9.84c.53-3.49,1.26-6.92,2.08-10.33s1.73-6.78,2.68-10.15,2-6.7,3.17-10,2.34-6.61,3.77-9.84C746.46,561.74,745.72,565.17,744.9,568.58Z" transform="translate(-658.05 -376.39)"/><path class="cls-32" d="M1145,406.46c8.63,0,8.65-13.42,0-13.42s-8.65,13.42,0,13.42Z" transform="translate(-658.05 -376.39)"/><path class="cls-33" d="M1003.71,443.08c13.82,0,13.84-21.47,0-21.47s-13.84,21.47,0,21.47Z" transform="translate(-658.05 -376.39)"/><path class="cls-34" d="M1188.6,497.31c13.81,0,13.84-21.47,0-21.47s-13.84,21.47,0,21.47Z" transform="translate(-658.05 -376.39)"/><path class="cls-35" d="M819,402.86h2.1a6.7,6.7,0,0,0,3.37-.75,6.44,6.44,0,0,0,2.8-1.81,6.62,6.62,0,0,0,1.81-2.8,6.69,6.69,0,0,0,.75-3.36c-.11-.78-.21-1.55-.31-2.32a8.79,8.79,0,0,0-2.25-3.85,9,9,0,0,0-6.17-2.56H819a6.69,6.69,0,0,0-3.36.75,6.62,6.62,0,0,0-2.8,1.81,6.41,6.41,0,0,0-1.81,2.81,6.66,6.66,0,0,0-.75,3.36c.1.77.21,1.54.31,2.32a8.66,8.66,0,0,0,2.25,3.84,9,9,0,0,0,6.16,2.56Z" transform="translate(-658.05 -376.39)"/><path class="cls-36" d="M785.19,443.53c5.18,0,5.19-8,0-8s-5.19,8,0,8Z" transform="translate(-658.05 -376.39)"/><path class="cls-37" d="M1087.82,415.84c8.64,0,8.65-13.42,0-13.42s-8.65,13.42,0,13.42Z" transform="translate(-658.05 -376.39)"/><path class="cls-38" d="M717,457.1c12.09,0,12.11-18.79,0-18.79s-12.11,18.79,0,18.79Z" transform="translate(-658.05 -376.39)"/><path class="cls-39" d="M1075.93,442.07a1.91,1.91,0,0,0-.32.43,3.06,3.06,0,0,0-.26,1,20.58,20.58,0,0,0,.78,6.34,25.06,25.06,0,0,1,.42,7,2,2,0,0,0,.38,1.72,1.27,1.27,0,0,0,1.62-.16,3.16,3.16,0,0,0,.79-1.58,22.78,22.78,0,0,0-.4-11.81,5.56,5.56,0,0,0-1.13-2.39c-.25-.26-.46-.6-.71-.85S1076.26,441.73,1075.93,442.07Z" transform="translate(-658.05 -376.39)"/><path class="cls-40" d="M1077,461.25h1.76c.88,0,1.69.16,2.56.15a.41.41,0,0,0,.31-.09.36.36,0,0,0,.06-.25c0-.72,0-1.44.06-2.16,0-.54.22-1.07.29-1.62a26.28,26.28,0,0,0,.25-4.06,20,20,0,0,0-4.12-11.57,1.39,1.39,0,0,0-.84-.62c-.74-.07-.71,1.21-.66,1.65.24,1.91,1,3.71,1.4,5.6a12.14,12.14,0,0,1-1.59,8.93c-.25.38-.86.91-.93,1.35a6,6,0,0,0,.23,1.66A1.24,1.24,0,0,0,1077,461.25Z" transform="translate(-658.05 -376.39)"/><path class="cls-41" d="M1080.84,460.69l-.08-7.91s-2.74-3.3-3.87-3.6-1.61,1.43-.91,2.95,1.17,2.34,1.17,2.34a5.94,5.94,0,0,0-1.43,6.61" transform="translate(-658.05 -376.39)"/><path class="cls-42" d="M1079.69,501.92c-2.48-.78-2.88-4-3.09-6.16-.31-3.22-1.86-35.16-1.42-35.19l7.39-.45s6.09,30.2,5.25,37.71C1087.45,501.14,1083,503,1079.69,501.92Z" transform="translate(-658.05 -376.39)"/><path class="cls-42" d="M1115.93,508.47c2.46,1.69,4.25,3.82,4.21,6.63-.07,5.61-6.11,5-10,3.87-6.75-2-13.05-5.84-19.29-9.07-4.62-2.39-10.61-5.35-13.31-10-1.5-2.6-1-5.46,2.3-5.73,3.7-.29,7.08,1.42,10.43,2.73,4.47,1.74,8.85,3.69,13.23,5.67C1107.62,504.38,1112.2,505.92,1115.93,508.47Z" transform="translate(-658.05 -376.39)"/><rect class="cls-43" x="259.12" y="224.42" width="61.1" height="5.02"/><rect class="cls-44" x="284.82" y="233.67" width="9.72" height="3.04"/><rect class="cls-45" x="287.74" y="236.71" width="3.86" height="18.44"/><rect class="cls-46" x="287.2" y="255.15" width="4.95" height="21.37"/><polygon class="cls-47" points="292.2 229.44 287.15 229.44 280.9 229.44 283.44 233.67 287.15 233.67 292.2 233.67 295.91 233.67 298.44 229.44 292.2 229.44"/><path class="cls-48" d="M944.69,583.46h.08l.62,0,1.1,0H949l1.1,0,.61,0h.08c10,.5,30.32,3.15,26.5,17.36h-59C914.37,586.61,934.65,584,944.69,583.46Z" transform="translate(-658.05 -376.39)"/><path class="cls-49" d="M968.08,591.32c-3.28-5.23-12.59-7.5-12.59-7.5,10.52,1.11,25,4.79,21.76,17H969C969.87,599.16,970.33,594.92,968.08,591.32Z" transform="translate(-658.05 -376.39)"/><path class="cls-50" d="M946.33,646.89c-9,3.88-21.66,9.81-23.36,11.83a6.43,6.43,0,0,0-1.4,4.33l24.76-11.26Z" transform="translate(-658.05 -376.39)"/><path class="cls-51" d="M928.64,663.27a3.06,3.06,0,1,1-3.06-3.06A3.05,3.05,0,0,1,928.64,663.27Z" transform="translate(-658.05 -376.39)"/><path class="cls-52" d="M949.11,651.79l24.77,11.26a6.49,6.49,0,0,0-1.41-4.33c-1.69-2-14.4-8-23.36-11.83Z" transform="translate(-658.05 -376.39)"/><path class="cls-53" d="M966.81,663.27a3.06,3.06,0,1,0,3.05-3.06A3,3,0,0,0,966.81,663.27Z" transform="translate(-658.05 -376.39)"/><rect class="cls-54" x="1025.76" y="542.01" width="39.18" height="2.66" transform="translate(1436.53 702.77) rotate(179.59)"/><rect class="cls-55" x="991.15" y="525.27" width="44.18" height="2.66" transform="translate(565.45 1272.59) rotate(-128.07)"/><path class="cls-56" d="M1070.42,645.71c-.2-1.9-2.74-3.79-4-5.1s-3.11-1.76-3.16-2.76c-.16-2.9,1.26-8.34,1.26-8.34l-9.42,0s.28,7.21-1.45,11.25-7.43,14.75-7.43,14.75-7,6.73-7.25,7.19a8.72,8.72,0,0,0-1.5,3.3s.55,2.61,11.53-2.75c0,0,5-2.06,11-7.85l4.16-3.46c1.42-1.19,5.88-4.51,6.16-5.34A1.92,1.92,0,0,0,1070.42,645.71Z" transform="translate(-658.05 -376.39)"/><path class="cls-57" d="M1064.15,651.9l-4.16,3.46c-6.06,5.79-11,7.85-11,7.85-11,5.36-11.53,2.75-11.53,2.75a8.72,8.72,0,0,1,1.5-3.3c.29-.46,7.25-7.19,7.25-7.19l0-.05c3.06,1.56,5.46,1.61,8.14-1.29,4.28-4.64,6.39-10.12,12.23-13.34,1.32,1.3,3.64,3.1,3.83,4.92a1.92,1.92,0,0,1-.11.85C1070,647.39,1065.57,650.71,1064.15,651.9Z" transform="translate(-658.05 -376.39)"/><path class="cls-58" d="M1056.94,568.52c10.45-3.71,21.73-5.2,32.74-6.41,5.47-.6,11.8-2.13,17.31-2.35,10.43-.41,22.65,4.17,21.21,16.35a11.5,11.5,0,0,1-1.45,4.39c-9.11,16-34.36,9.39-48.49,6.62-6.14-1.21-12.27-2.54-18.31-4.11C1052.21,576,1056.94,568.52,1056.94,568.52Z" transform="translate(-658.05 -376.39)"/><path class="cls-59" d="M1056.94,568.52s-2.44-.23-2.61,6.07.35,57.37.35,57.37l9.22,1.38s10.39-36.66,4.34-58.76C1068.24,574.58,1066,564.78,1056.94,568.52Z" transform="translate(-658.05 -376.39)"/><path class="cls-60" d="M1136.13,522.55a2,2,0,0,1,.44-.69c-9.17-3-12.44,10.56-13.52,17.36v0c0,.15,0,.29-.07.42s-.07.48-.11.76c0,.06,0,.11,0,.17s0,.28,0,.42h0l0,.26,0,.26h0c0,.14,0,.28,0,.41s0,.12,0,.17c0,.28,0,.53-.06.76l0,.43v0c-.39,6.72,3,20.31,12.31,19.45C1127.29,545.47,1135.74,523.52,1136.13,522.55Z" transform="translate(-658.05 -376.39)"/><path class="cls-61" d="M1140.45,563.43c-8.88-15.87,0-39.06.13-39.29a2.24,2.24,0,0,0-1.4-2.92,2.44,2.44,0,0,0-2.61.64,2,2,0,0,0-.44.69c-.39,1-8.84,22.92-1.22,40.28.41.93.84,1.84,1.34,2.73,6.53,11.66,6.77,29,4.23,33.63-.4.74-1.25,2-2.42,2.14a2.28,2.28,0,0,0-2.07,2.52,2.35,2.35,0,0,0,2.36,2l.3,0a8.09,8.09,0,0,0,6-4.54C1147.9,595.4,1147.82,576.6,1140.45,563.43Z" transform="translate(-658.05 -376.39)"/><rect class="cls-62" x="419.93" y="224.42" width="61.1" height="5.02"/><rect class="cls-63" x="445.62" y="233.67" width="9.72" height="3.04"/><rect class="cls-64" x="448.55" y="236.71" width="3.86" height="18.44"/><rect class="cls-65" x="448" y="255.15" width="4.95" height="21.37"/><polygon class="cls-66" points="453.01 229.44 447.95 229.44 441.71 229.44 444.25 233.67 447.95 233.67 453.01 233.67 456.71 233.67 459.25 229.44 453.01 229.44"/><path class="cls-67" d="M1105.5,583.46h.08l.61,0,1.1,0h2.47l1.1,0,.61,0h.09c10,.5,30.31,3.15,26.49,17.36h-59C1075.18,586.61,1095.45,584,1105.5,583.46Z" transform="translate(-658.05 -376.39)"/><path class="cls-68" d="M1128.88,591.32c-3.27-5.23-12.59-7.5-12.59-7.5,10.52,1.11,25,4.79,21.76,17h-8.27C1130.67,599.16,1131.14,594.92,1128.88,591.32Z" transform="translate(-658.05 -376.39)"/><path class="cls-69" d="M1107.13,646.89c-9,3.88-21.66,9.81-23.36,11.83a6.48,6.48,0,0,0-1.4,4.33l24.76-11.26Z" transform="translate(-658.05 -376.39)"/><path class="cls-70" d="M1089.44,663.27a3.06,3.06,0,1,1-3-3.06A3,3,0,0,1,1089.44,663.27Z" transform="translate(-658.05 -376.39)"/><path class="cls-71" d="M1109.92,651.79l24.76,11.26a6.43,6.43,0,0,0-1.4-4.33c-1.7-2-14.41-8-23.36-11.83Z" transform="translate(-658.05 -376.39)"/><path class="cls-72" d="M1127.61,663.27a3.06,3.06,0,1,0,3.06-3.06A3.05,3.05,0,0,0,1127.61,663.27Z" transform="translate(-658.05 -376.39)"/><path class="cls-73" d="M1127.88,466.51c8.62,2,12.59,10.94,7.87,18.48-1.24,2-2.92,3.66-4.25,5.59-2.87,4.18-1.58,8.09,2.27,10.94a12.56,12.56,0,0,1,5.15,10.18c-.05,4.9-3,8.05-6,11.57-1.46,1.73-3,3.85-2.83,6.22a5.84,5.84,0,0,0,2,4c-3.86,4.55-13.37,3.68-16.38-1.49-1.43-2.45-.87-5.2-.51-7.86A18.18,18.18,0,0,0,1114,515c-1.1-2.75-2.54-5.28-2-8.38.38-2.3,1.37-4.5,1.17-6.89s-1.94-4.54-3.72-6.28c-3.13-3.08-5.92-6.43-5.88-11.08,0-5,3.47-9.2,7.19-12.2A20.94,20.94,0,0,1,1127.88,466.51Z" transform="translate(-658.05 -376.39)"/><path class="cls-74" d="M1097.86,466.13c2.72-3.49,7.78-4.65,11.76-4.91,5.65-.37,12,1.38,15.55,6.32,6.4,9-2.77,25.18-12.59,26.19a5.55,5.55,0,0,1-3.53-.64c-1.28-.81-1.59-2.23-2.35-3.51a9.59,9.59,0,0,0-1.44-1.78c-1.89-2-4-3.71-5.74-5.78a15.29,15.29,0,0,1-3.75-7.35A11,11,0,0,1,1097.86,466.13Z" transform="translate(-658.05 -376.39)"/><path class="cls-75" d="M1110.55,491.61c1-.51,1.88-1.05,2.79-1.63a82.35,82.35,0,0,0,2.33,10.75,11.85,11.85,0,0,1-.13,2.26s-3.27,6-11.21,2.72a20.59,20.59,0,0,0,1.87-11A33.6,33.6,0,0,1,1110.55,491.61Z" transform="translate(-658.05 -376.39)"/><path class="cls-76" d="M1098.14,470.16s-5.68,19.17.28,26c0,0,10.84,2.3,16.77-7.53S1115.24,462.44,1098.14,470.16Z" transform="translate(-658.05 -376.39)"/><polygon class="cls-77" points="438.94 103.12 438.33 111.19 434.49 110.9 438.94 103.12"/><path class="cls-78" d="M1115.22,481.8a8.84,8.84,0,0,0,5.23-4.25,8.65,8.65,0,0,0,.46-7.37,7.45,7.45,0,0,0-3.39-3.32,21.67,21.67,0,0,0-7.89-2.11c-2.32-.28-7.6,1.69-9.73,3.5C1095.7,471.81,1111.62,482.86,1115.22,481.8Z" transform="translate(-658.05 -376.39)"/><path class="cls-79" d="M1112.14,480.73s3-4.34,5.12-1.73c1.8,2.22.93,7.8-3.79,9.58Z" transform="translate(-658.05 -376.39)"/><path class="cls-80" d="M1112.66,633.47c-1.18-1.53-4.46-1.79-6.31-2.24-1.67-.41-3.72.16-4.29-.67-1.66-2.42-3.23-7.85-3.23-7.85l-8.52,5s4,6,4.58,10.45,1,16.65,1,16.65-2.76,9.51-2.77,10.06a8.23,8.23,0,0,0,.37,3.64s1.86,2,9-8.53a42.14,42.14,0,0,0,5.82-12.63l1.94-5.21c.67-1.78,3-7,2.77-7.89A1.94,1.94,0,0,0,1112.66,633.47Z" transform="translate(-658.05 -376.39)"/><path class="cls-81" d="M1110.23,642.14l-1.94,5.21a42,42,0,0,1-5.82,12.63c-7.11,10.48-9,8.53-9,8.53a8.23,8.23,0,0,1-.37-3.64c0-.55,2.77-10.06,2.77-10.06v0c3.57-.3,5.77-1.53,6.67-5.47,1.43-6.27.46-12.11,4-18,1.87.42,4.91.72,6,2.18a1.94,1.94,0,0,1,.34.78C1113.19,635.12,1110.9,640.36,1110.23,642.14Z" transform="translate(-658.05 -376.39)"/><path class="cls-82" d="M1060.09,574.31s-2.33,1.12.81,6.62,30.35,49.13,30.35,49.13l9-3.74s-9.81-37.07-26.85-52.83C1073.45,573.49,1066.33,566.24,1060.09,574.31Z" transform="translate(-658.05 -376.39)"/><path class="cls-83" d="M1124.27,583.76a23.44,23.44,0,0,0,3.92-9.53,31.8,31.8,0,0,0,0-7.86c-.45-4.94-7.17-3.65-10.43-3.08a160,160,0,0,1-22.72,1.83c-10,.31-20.23.86-29.92,3.69-2.4.7-4.63,1.76-5.31,4.38a12.3,12.3,0,0,0,1.43,9.06c2,3.53,6.19,4.42,9.82,5.54a76.81,76.81,0,0,0,9.9,2.64c5.54,1,11.41,1.69,17.06,2.1,7.78.56,16.2,0,22.37-4.74A18.94,18.94,0,0,0,1124.27,583.76Z" transform="translate(-658.05 -376.39)"/><path class="cls-84" d="M1120.71,516.59a41.91,41.91,0,0,0,.06-5.49c-.24-4-.79-9.56-4.74-11-4.31-1.56-20.36,17.57-20.63,22.94-.16,3.23,1.6,6.21,2.85,9.19a36.77,36.77,0,0,1,2,21.54c-.39,1.87-1.4,3.76-.29,5.45a7.57,7.57,0,0,0,3.76,2.5c4.17,1.49,8.76,1,13.16.46a13,13,0,0,0,5-1.27c4.63-2.62,1.1-6.89-.09-10.44a54.86,54.86,0,0,1-2.45-12.71C1118.68,530.61,1120.21,523.71,1120.71,516.59Z" transform="translate(-658.05 -376.39)"/><path class="cls-85" d="M1121.05,516.85c.49-6.35-.14-14.3-5.52-18.24-.11-.08-21,15.74-21,26.56,0,4.81,2.07,9.48,3.63,13.59.67,1.75.34,4.59.28,6.44-.13,4.44-.81,8.84-.8,13.28a3.25,3.25,0,0,0,.24,1.49,21,21,0,0,0,1.3,2.75c3,3.65,2.17,2.67,10.59,5.35,6.68,2.12,7.51,4.81,13.22,5,4.4.18,4.56-2.54,6.56-4.24,1.64-1.39-3.75-11.54-4.36-13.53s-1.23-3.85-1.82-5.79a55.74,55.74,0,0,1-2.38-11.13,98,98,0,0,1-.14-19.75C1120.94,518.08,1121,517.47,1121.05,516.85Z" transform="translate(-658.05 -376.39)"/><path class="cls-42" d="M1105.73,516.37c.4-3,1.49-5.51,4-6.74,5-2.47,7.23,3.19,8,7.16,1.26,6.93.67,14.29.6,21.31-.06,5.21,0,11.88-3,16.41-1.65,2.51-4.4,3.4-6.15.52-1.93-3.16-1.93-6.95-2.27-10.53-.45-4.78-.69-9.57-.89-14.37C1105.82,525.63,1105.13,520.85,1105.73,516.37Z" transform="translate(-658.05 -376.39)"/><path class="cls-86" d="M1076.49,541.08l-.91-.62a.57.57,0,0,0-.13-.08l-8.08-4.24a1.25,1.25,0,0,0-1.13,0L1055,541.61a1.3,1.3,0,0,0-.48.42h0a1.24,1.24,0,0,0,.74,1.91l1.32.32a1.23,1.23,0,0,0,.71,0l3.84-1.36a1.21,1.21,0,0,1,.86,0,64.43,64.43,0,0,0,11.66,3.41,1.23,1.23,0,0,0,1.35-.83Z" transform="translate(-658.05 -376.39)"/><path class="cls-42" d="M1114.45,555.7c-1.52,2.11-4.68,1.48-6.82,1-3.16-.71-34-9.3-33.85-9.73l1.9-7.15s30.58,3.73,37.45,6.89C1116.15,548.09,1116.48,552.88,1114.45,555.7Z" transform="translate(-658.05 -376.39)"/><polygon class="cls-87" points="459.66 121.62 446.91 134.15 444.45 130.05 458.55 120.49 459.66 121.62"/><polygon class="cls-88" points="444.45 130.05 443.32 135.58 446.02 132.66 444.45 130.05"/><path class="cls-89" d="M750.73,596.11c-5.37-.65-8.86-2.82-10.38-6.45-4.25-10.1,6.33-30.19,10.76-37.08l.07-.12a1,1,0,0,0-.23-1.31L749,549.7a1,1,0,0,0-1.41.25h0c-.71,1.1-17.25,27.07-11.14,41.62,2.18,5.2,6.82,8.27,13.79,9.13h0a1,1,0,0,0,1.1-.87l.27-2.64a1,1,0,0,0-.85-1.08Z" transform="translate(-658.05 -376.39)"/><path class="cls-90" d="M768.16,569H744.48c-6.55,0-11.86-7.26-11.86-16.22V538.07c0-9,5.31-16.21,11.86-16.21h23.68c6.55,0,11.85,7.26,11.85,16.21v14.66C780,561.69,774.71,569,768.16,569Z" transform="translate(-658.05 -376.39)"/><rect class="cls-91" x="742.8" y="600.82" width="61.1" height="5.02" transform="translate(888.66 830.26) rotate(180)"/><rect class="cls-92" x="768.49" y="610.07" width="9.72" height="3.04" transform="translate(888.66 846.78) rotate(180)"/><rect class="cls-93" x="771.42" y="613.1" width="3.86" height="18.44" transform="translate(888.66 868.25) rotate(180)"/><rect class="cls-94" x="770.88" y="631.54" width="4.95" height="21.37" transform="translate(888.66 908.06) rotate(180)"/><polygon class="cls-95" points="112.78 229.44 117.83 229.44 124.08 229.44 121.54 233.67 117.83 233.67 112.78 233.67 109.07 233.67 106.54 229.44 112.78 229.44"/><path class="cls-96" d="M776.38,583.46h-.08l-.61,0-1.1,0h-2.47l-1.1,0-.62,0h-.08c-10,.5-30.32,3.15-26.49,17.36h59C806.7,586.61,786.43,584,776.38,583.46Z" transform="translate(-658.05 -376.39)"/><path class="cls-97" d="M753,591.32c3.27-5.23,12.59-7.5,12.59-7.5-10.53,1.11-25.05,4.79-21.76,17h8.27C751.21,599.16,750.74,594.92,753,591.32Z" transform="translate(-658.05 -376.39)"/><path class="cls-98" d="M774.74,651.79l24.77,11.26a6.53,6.53,0,0,0-1.4-4.33c-1.7-2-14.41-8-23.37-11.83Z" transform="translate(-658.05 -376.39)"/><path class="cls-99" d="M792.44,663.27a3.06,3.06,0,1,0,3-3.06A3,3,0,0,0,792.44,663.27Z" transform="translate(-658.05 -376.39)"/><path class="cls-100" d="M772,646.89c-9,3.88-21.66,9.81-23.36,11.83a6.43,6.43,0,0,0-1.4,4.33L772,651.79Z" transform="translate(-658.05 -376.39)"/><path class="cls-101" d="M754.27,663.27a3.06,3.06,0,1,1-3.06-3.06A3.05,3.05,0,0,1,754.27,663.27Z" transform="translate(-658.05 -376.39)"/><path class="cls-102" d="M838,516.06a20.36,20.36,0,0,1-5.9,1.67,62.22,62.22,0,0,1-16.94-.94,84.38,84.38,0,0,1-13.41-3.53c-3.83-1.36-16.9-5.14-11.68-12.09a7,7,0,0,1,5.35-2.45c8.74-.5,37.94,6.81,37.94,6.81Z" transform="translate(-658.05 -376.39)"/><path class="cls-103" d="M813,474.44l-2.72-13.28s2.11,0,3,1.2,2.08,1.5,3,2.49,4,2.28,5.08,4.27-.2,5.22.69,7.2,3.09,6,3.09,6l-7.19,3-2.66-5.65s-6.21-3.39-7.1-8.62Z" transform="translate(-658.05 -376.39)"/><path class="cls-104" d="M841,515.6s-9.11,4.68-12.76-1.26-12.44-32.6-12.44-32.6l8.09-2.46S843,508,841,515.6Z" transform="translate(-658.05 -376.39)"/><path class="cls-105" d="M862.69,654.66l-.11-.09a7.92,7.92,0,0,0-1.39-.91l.54.19-.55-.19a16.06,16.06,0,0,0-3.34-1.22l-1.1-.28c-1.7-.57-3.21-1.06-3.68-1.21l-.2-.09c-.75-.54-8.66-5.78-12-8.62a3.45,3.45,0,0,1-.28-.26,58.68,58.68,0,0,1-.54-10.24l-11.94,0s1.73,7.17,1.5,11a7.58,7.58,0,0,1-.64,1.48c-.14.26-.29.52-.44.78s-.29.54-.41.82a24.3,24.3,0,0,0-1.15,2.61,12.77,12.77,0,0,0-.4,3.15c0,.35,0,.7,0,1a4.2,4.2,0,0,0,.43,2,4.27,4.27,0,0,0,2.63,1.69c2.09.62,4.28.85,6.4,1.37,3.9,1,7.84,2.48,11.88,3.12,4.48.71,9-.08,13.47-.22,1.19,0,3-.44,3.34-1.78S863.62,655.47,862.69,654.66Z" transform="translate(-658.05 -376.39)"/><path class="cls-106" d="M826.58,652.16a6.19,6.19,0,0,1,0-.86A3.52,3.52,0,0,0,826.58,652.16Z" transform="translate(-658.05 -376.39)"/><path class="cls-106" d="M847.32,654h0Z" transform="translate(-658.05 -376.39)"/><path class="cls-106" d="M846.82,653.89a3.43,3.43,0,0,1-.44-.09Z" transform="translate(-658.05 -376.39)"/><path class="cls-107" d="M864.78,658.18a2.74,2.74,0,0,0-.09-.55,3.28,3.28,0,0,0-.21-.57,5.1,5.1,0,0,0-.29-.57c-.05-.09-.11-.18-.17-.27a7.78,7.78,0,0,0-.87-1.11c-.09-.09-.18-.19-.27-.27h0l-.18-.17-.11-.09c-.14-.12-.29-.22-.43-.33l-.19-.13-.22-.13c-.18-.11-.36-.22-.55-.32l.54.19-.55-.19a10.67,10.67,0,0,0-1.63-.7l-.78-.26-.13,0-.8-.22-1.1-.28c-1.7-.57-3.21-1.06-3.68-1.21l-.11-.05a.19.19,0,0,0-.09,0c-.59-.43-6.64-4.8-10.78-8-2.57,3.77-9.9,4.27-13.84,1.82a5.8,5.8,0,0,1-.48,1c-.32.71-.78,1.35-1,2.08,0,.12-.09.25-.13.39s-.13.51-.18.77-.07.41-.1.62-.07.57-.09.85,0,.3,0,.45c0,.73,0,1.38,0,1.76a6.92,6.92,0,0,0,.09,1l.06.25a2.56,2.56,0,0,0,.28.71,2.77,2.77,0,0,0,.5.62,2.43,2.43,0,0,0,.3.24,6.07,6.07,0,0,0,1.83.83c1.05.31,2.58.53,3.65.72l1.61.3c.53.11,1.07.22,1.6.35,1.7.42,3.42.95,5.14,1.46,1.24.37,2.48.73,3.73,1,1,.25,2,.46,3,.62l.84.12.84.08c.54.05,1.08.07,1.63.08h.9c.84,0,1.68,0,2.52-.08,2.25-.13,4.5-.36,6.74-.43a6.3,6.3,0,0,0,1.23-.16,2.56,2.56,0,0,0,2.11-1.62,1.87,1.87,0,0,0,0-.53Zm-8.1-6-.88-.23-.08,0a16.36,16.36,0,0,1-2.65-.94h0Z" transform="translate(-658.05 -376.39)"/><path class="cls-108" d="M799.46,661.58l0-.14a8.61,8.61,0,0,0-.61-1.55c.11.16.23.31.33.47l-.33-.48a16.12,16.12,0,0,0-2-2.92c-.24-.3-.49-.58-.73-.87L793.79,653l-.12-.19c-.29-.87-3.69-9.74-4.73-14,0-.11-.06-.24-.08-.36a58.28,58.28,0,0,1,5.51-8.65l-9.69-7s-2.75,6.84-5.15,9.81a8.25,8.25,0,0,1-1.39.83l-.81.38c-.27.14-.55.27-.81.43a25.4,25.4,0,0,0-2.45,1.45,12.91,12.91,0,0,0-2.15,2.34c-.22.28-.42.56-.62.85a4.06,4.06,0,0,0-.81,1.87,4.28,4.28,0,0,0,1.16,2.9c1.34,1.72,3,3.18,4.41,4.83,2.61,3,4.94,6.58,7.86,9.45,3.23,3.17,7.35,5.15,11.09,7.64,1,.66,2.7,1.39,3.75.49S799.75,662.78,799.46,661.58Z" transform="translate(-658.05 -376.39)"/><path class="cls-106" d="M839.71,656.73h0Z" transform="translate(-658.05 -376.39)"/><path class="cls-109" d="M799.12,665.65a2.48,2.48,0,0,0,.24-.49,3.66,3.66,0,0,0,.17-.59c0-.2.07-.42.09-.63s0-.22,0-.33a9,9,0,0,0-.06-1.4l-.06-.38h0l-.06-.24,0-.14c0-.18-.11-.35-.17-.52l-.07-.21-.1-.24a6.11,6.11,0,0,0-.27-.58c.11.16.23.31.33.47l-.33-.48a14,14,0,0,0-.92-1.52c-.16-.22-.32-.44-.49-.65l-.09-.11-.51-.64c-.24-.3-.49-.58-.73-.87L793.79,653l-.06-.1-.06-.09c-.23-.69-2.62-7.77-4.12-12.78-4.28,1.57-10.54-2.28-12.31-6.56a6.57,6.57,0,0,1-1,.51c-.67.39-1.42.65-2.07,1.08l-.32.24c-.2.16-.4.34-.6.53l-.44.44c-.2.21-.39.42-.57.64l-.29.34c-.47.57-.85,1.09-1.07,1.41a6.09,6.09,0,0,0-.52.89,3.28,3.28,0,0,0-.28,1,2.61,2.61,0,0,0,0,.79c0,.12.06.25.1.38a6,6,0,0,0,1,1.74c.67.85,1.79,1.92,2.54,2.7l1.14,1.18c.37.4.74.8,1.1,1.21,1.14,1.33,2.23,2.76,3.34,4.18.79,1,1.59,2,2.43,3,.66.78,1.36,1.54,2.09,2.26l.61.58.64.56c.41.35.84.68,1.27,1l.73.53c.69.48,1.39.94,2.1,1.4,1.91,1.2,3.87,2.32,5.74,3.56a6.57,6.57,0,0,0,1.09.59,2.55,2.55,0,0,0,2.66-.1,1.68,1.68,0,0,0,.35-.4ZM796,656l-.59-.71-.05-.06a16.65,16.65,0,0,1-1.61-2.3h0Z" transform="translate(-658.05 -376.39)"/><path class="cls-110" d="M836,565.11c-11.47-3.79-23.76-5.05-35.75-6-6-.47-12.9-1.52-18.87-2C768.19,556,758,552.22,760,565.87c.73,5,1.79,10.39,4.78,14.65,3.25,4.63,8.89,6.62,14.27,7.55,6.08,1,12.34.9,18.48.69a82,82,0,0,0,16.07-2c6.61-1.58,13.2-3.3,19.7-5.29C841.42,573.3,836,565.11,836,565.11Z" transform="translate(-658.05 -376.39)"/><path class="cls-111" d="M836,565.11s2.65-.35,3.07,6.73,1.79,64.55,1.79,64.55l-13.08,2.77s-12.66-40.86-6.93-65.95C820.85,573.21,826,561.23,836,565.11Z" transform="translate(-658.05 -376.39)"/><path class="cls-112" d="M828.88,569.37l-.27-.26c-2-1.83-5.11-2.34-7.69-2.76-18.64-3.06-38.42-4.41-57.26-5.75-3.16-.22-6.39-1-8.53,1.79-1.69,2.18-2.09,5.19-2.17,7.86a21.07,21.07,0,0,0,1.28,8.92,18,18,0,0,0,7.26,8c7.26,4.52,16.25,5.23,24.79,4.88a121.67,121.67,0,0,0,25.89-3.92c6.43-1.74,14.55-3,17.38-9.92C830.69,575.4,831.11,571.72,828.88,569.37Z" transform="translate(-658.05 -376.39)"/><path class="cls-113" d="M759.25,502.4c3.27-5.51,9.28-7.38,15.4-7.12a45.32,45.32,0,0,1,9.86,1.68c3.1.84,7.14,1.57,9.54,3.83,2.93,2.78,3.52,6.93,3.78,10.75.27,4.11.33,8.22.22,12.34-.2,7.93-.76,15.82-.48,23.77.14,4.1.3,8.92-4.12,10.88-2.31,1-5,1.08-7.44,1.22a85.32,85.32,0,0,0-12.23,1.42c-3.78.75-7.42,2.27-11.32,2.35-3.3.08-6.08-1.49-6.14-5s2-7.92,2.57-11.54a60.39,60.39,0,0,0,.07-21C757.47,518.29,755,509.65,759.25,502.4Z" transform="translate(-658.05 -376.39)"/><path class="cls-114" d="M799.64,506.72c-.38-5.15-11.8-11.9-14.74-12.32l-.08,9.74-14.62-11c-.15-.19-5.45,2.33-6.11,2.62-13.65,6.05-10.58,24.1-10.54,36l.06,17.59c0,3,.14,6,0,9-.1,2.69.64,3.91,3.18,5.35,2.81,1.59,5.64.55,8.5-.29a72.34,72.34,0,0,1,10.16-2.37A119.59,119.59,0,0,1,789.23,560c3.89-.11,7.23.29,8.82-4a15,15,0,0,0,.69-5.54C798.38,533.73,800.86,523.45,799.64,506.72Z" transform="translate(-658.05 -376.39)"/><polygon class="cls-115" points="129.92 125.28 127.11 134.38 122.83 125.49 125.62 125.41 126.78 127.75 126.74 125.38 129.92 125.28"/><polygon class="cls-116" points="127.63 131.77 125.99 131.77 123.82 170.28 128.45 174.82 132.45 169.75 127.63 131.77"/><path class="cls-117" d="M784.89,484.61c0,1.84.07,3.67.11,5.51,0,0,.37,8.19-.73,9.34-2,2.05-11.62,0-11.62-6.38l.33-14.64Z" transform="translate(-658.05 -376.39)"/><path class="cls-118" d="M771.84,465.93,773,472l1.79,9.3.51,2.62c8.72,8,18.55,6.16,20.64,2s-1.73-23.31-1.73-23.31Z" transform="translate(-658.05 -376.39)"/><polygon class="cls-119" points="134.54 94.58 135.09 102.89 139.83 102.58 134.54 94.58"/><path class="cls-120" d="M776.1,468.38a7,7,0,0,0,.12,1.34c.28,1.81.46,3.63.69,5.44l-3.41-3.8c0,4.84-.26,9.72-.28,14.53a23.51,23.51,0,0,1-5-4.93c-1.5-2-2.25-4.21-3.29-6.46a17.94,17.94,0,0,1,1.78-18.19,14,14,0,0,1,8.57-5.71,9.75,9.75,0,0,1,9.43,3.38,6.18,6.18,0,0,1,5.76-4.16,8.07,8.07,0,0,1,6.46,3.41A11.81,11.81,0,0,1,799,460.4a22.94,22.94,0,0,1-1.29,6.55,31.68,31.68,0,0,1-2,4.69c-.31-1.77-.61-3.54-.92-5.31a3.76,3.76,0,0,0-1.95-3,3.66,3.66,0,0,0-3.55.63,10.64,10.64,0,0,0-2.39,2.89,6.47,6.47,0,0,0-9.82-.33A2.82,2.82,0,0,0,776.1,468.38Z" transform="translate(-658.05 -376.39)"/><path class="cls-121" d="M769.34,471.66c-1.39,2.54.09,7.4,5.22,8.39l-1-8.69A2.63,2.63,0,0,0,769.34,471.66Z" transform="translate(-658.05 -376.39)"/><polygon class="cls-122" points="154.56 128.6 145.37 130.37 146.92 111.87 156.1 110.09 154.56 128.6"/><polygon class="cls-123" points="144.08 130.1 145.37 130.37 146.92 111.87 145.63 111.59 144.08 130.1"/><polygon class="cls-123" points="145.63 111.59 154.81 109.82 156.1 110.09 146.92 111.87 145.63 111.59"/><path class="cls-124" d="M775.88,554.49a23.21,23.21,0,0,1-4.94-4.56,66.73,66.73,0,0,1-8.68-16.26,87.29,87.29,0,0,1-4.23-14.4c-.87-4.3-4.65-18.52,5-17.5a7.73,7.73,0,0,1,5.37,3.62c5.43,7.85,15,39,15,39Z" transform="translate(-658.05 -376.39)"/><path class="cls-125" d="M802.59,501.72l11.13-9.63s1.21,2,.52,3.45-.26,2.76-.69,4.14.09,5-1.21,7.08-5.09,2.59-6.47,4.48-4,6.13-4,6.13l-6.93-5.18,3.88-5.52s-.26-7.68,4.23-11.3Z" transform="translate(-658.05 -376.39)"/><path class="cls-126" d="M775.84,554.5s-9.79-6.27-6.1-13,13.93-15.08,27.29-33.42l7.05,6.49S784.45,552.33,775.84,554.5Z" transform="translate(-658.05 -376.39)"/><path class="cls-127" d="M829.9,572.88a4.19,4.19,0,0,1,.48,1.17c.5,2.09-1,4.52-2,6.2-3.73,6-35.67,53.84-35.67,53.84l-12.29-5.27c1.84-5.7,4.07-11.29,6.43-16.8,4.67-10.93,10.08-21.75,17.16-31.34,4.43-6,9.2-12.48,17.41-12.24C824.59,568.53,828.23,570,829.9,572.88Z" transform="translate(-658.05 -376.39)"/><path class="cls-128" d="M784.82,504.14l3.78-3-3.54-9.75S784.64,504,784.82,504.14Z" transform="translate(-658.05 -376.39)"/><polygon class="cls-129" points="127.01 115.04 130.56 124.78 136.87 126 127.01 114.31 127.01 115.04"/><polygon class="cls-130" points="110.87 116.79 118.34 129.36 124.85 123.86 114.14 114.24 110.87 116.79"/><polygon class="cls-131" points="124.85 123.86 126.78 127.75 122.83 125.49 124.85 123.86"/><path class="cls-132" d="M977.44,514.91a12,12,0,0,1,1.1,1.45,99.48,99.48,0,0,1,6.16,11.08,129.89,129.89,0,0,1,6.78,15,26.49,26.49,0,0,1,1.77,8.13,6.48,6.48,0,0,1-.94,4c-1.48,2.06-4.61,2-6.64.52s-3-3.73-4.15-5.85c-4.42-8.21-8.16-16.9-12.21-25.33a13.88,13.88,0,0,1-1.56-4.52c-.42-4.33,5-7.57,8.47-5.53A5,5,0,0,1,977.44,514.91Z" transform="translate(-658.05 -376.39)"/><path class="cls-133" d="M972.39,506.58c7,2.54,14.33,21.83,14.33,21.83l-17.81,7.75-4.4-31.25C965,504.88,972.22,506.52,972.39,506.58Z" transform="translate(-658.05 -376.39)"/><path class="cls-134" d="M917.6,514.91a12,12,0,0,0-1.1,1.45,99.48,99.48,0,0,0-6.16,11.08,129.89,129.89,0,0,0-6.78,15,26.49,26.49,0,0,0-1.77,8.13,6.48,6.48,0,0,0,.94,4c1.48,2.06,4.61,2,6.64.52s3-3.73,4.15-5.85c4.42-8.21,8.16-16.9,12.21-25.33a13.63,13.63,0,0,0,1.55-4.52c.43-4.33-4.95-7.57-8.46-5.53A5,5,0,0,0,917.6,514.91Z" transform="translate(-658.05 -376.39)"/><path class="cls-135" d="M922.65,506.58c-6.95,2.54-14.33,21.83-14.33,21.83l17.81,7.75,4.4-31.25C930.06,504.88,922.82,506.52,922.65,506.58Z" transform="translate(-658.05 -376.39)"/><path class="cls-136" d="M978.11,652.16a7.76,7.76,0,0,1,.13-.82A5,5,0,0,0,978.11,652.16Z" transform="translate(-658.05 -376.39)"/><path class="cls-136" d="M996.66,657.5l-.07,0Z" transform="translate(-658.05 -376.39)"/><path class="cls-136" d="M996.21,657.34l-.38-.16Z" transform="translate(-658.05 -376.39)"/><path class="cls-136" d="M1001,656.63l.21-.17Z" transform="translate(-658.05 -376.39)"/><path class="cls-136" d="M1001.48,656.19l-.11.1Z" transform="translate(-658.05 -376.39)"/><path class="cls-137" d="M997.49,575.61a4.86,4.86,0,0,0-.28-.7c-1.51-3.21-5.68-4.55-8.57-5.85-4.88-2.2-9.95-3.89-14.89-5.95-6-2.51-12.68-4.75-19.23-3.7a17,17,0,0,0-6.8,2.73,17,17,0,0,0-6.79-2.73c-6.55-1-13.21,1.19-19.24,3.7-4.93,2.06-10,3.75-14.89,5.95-2.88,1.3-7,2.64-8.57,5.85a4.86,4.86,0,0,0-.28.7c-1,3,.36,6.29,1.81,8.84.89,1.54,3.44,6,5.22,6.35,7.29,1.64,14.85,1.44,22.22.52,4.48-.57,8.92-1.4,13.33-2.33a58,58,0,0,0,7.19-1.73,58.42,58.42,0,0,0,7.19,1.73c4.42.93,8.86,1.76,13.33,2.33,7.37.92,14.93,1.12,22.23-.52,1.77-.37,4.33-4.81,5.21-6.35C997.14,581.9,998.46,578.61,997.49,575.61Z" transform="translate(-658.05 -376.39)"/><path class="cls-138" d="M948.25,500.27h-.16c-11.87.09-24.14,6.35-24.14,6.35l.18,2.88q.68,11.06,1.34,22.11.4,6.75.82,13.5c.29,4.8.85,9-.47,13.66-.4,1.43-.89,3-.31,4.38a4.81,4.81,0,0,0,2.42,2.14,57.46,57.46,0,0,0,5.54,2.67c9.19,3.67,19.26,2.3,28.84.38,3.05-.61,6.33-1.41,8.39-4.1a4.34,4.34,0,0,0,.8-1.5,7.53,7.53,0,0,0-.45-4,31.43,31.43,0,0,1-.77-3.49c-.85-5.28-.19-10.86.14-16.18q.45-7.62.92-15.24l1-17.25S960.13,500.37,948.25,500.27Z" transform="translate(-658.05 -376.39)"/><polygon class="cls-139" points="287.9 143.39 291.3 135.66 287.9 135.66 287.8 135.66 284.4 135.66 287.8 143.39 287.8 143.62 287.85 143.51 287.9 143.62 287.9 143.39"/><polygon class="cls-140" points="288 185.51 292.45 175.65 289.36 140.87 287.94 141.25 286.52 140.87 282.47 175.65 287.88 185.51 287.88 185.62 287.94 185.56 288 185.62 288 185.51"/><polygon class="cls-141" points="287.84 139.59 296.32 125.27 279.37 125.27 287.84 139.59"/><path class="cls-142" d="M944.14,513l-3.41-1.74-4.32-12.53S944.19,512.79,944.14,513Z" transform="translate(-658.05 -376.39)"/><polygon class="cls-143" points="278.36 122.36 282.68 134.89 276.73 138.57 276.05 122.61 278.06 121.8 278.36 122.36"/><path class="cls-144" d="M947.54,513l3.86-1.57,3.86-12.7S947.48,512.79,947.54,513Z" transform="translate(-658.05 -376.39)"/><polygon class="cls-145" points="297.22 122.36 293.35 135.05 298.85 138.57 299.53 122.61 297.52 121.8 297.22 122.36"/><path class="cls-146" d="M1010.5,660.83l-.08-.11a6.92,6.92,0,0,0-1.12-1.11l.46.27-.47-.28a14.16,14.16,0,0,0-2.83-1.74l-1-.47-3.14-1.79-.17-.13h0c-.59-.65-11.08-12.07-11.61-13.05-.92-4.27-.21-10.53-.21-10.53l-8.66-.71s1.22,7.75,0,13.57a11.64,11.64,0,0,0-1.44,2.07,2.26,2.26,0,0,1-.11.22l.14,0-.11,0c-1.23.5-2,4.25-2.16,5.44a4.27,4.27,0,0,0,.06,2,4.1,4.1,0,0,0,2.12,2.08c1.79,1,3.74,1.55,5.58,2.42,3.38,1.59,6.71,3.74,10.28,5.05,3.95,1.46,8.17,1.48,12.27,2.12,1.09.17,2.8.1,3.33-1.13S1011.22,661.77,1010.5,660.83Z" transform="translate(-658.05 -376.39)"/><path class="cls-147" d="M1011.82,664.56a3.11,3.11,0,0,0,0-.53c0-.2-.05-.39-.09-.59s-.11-.4-.18-.6a2.49,2.49,0,0,0-.11-.29,8,8,0,0,0-.6-1.21l-.2-.31h0l-.14-.19-.08-.11a4.4,4.4,0,0,0-.35-.39l-.14-.15-.18-.18a5.73,5.73,0,0,0-.45-.39l.46.27-.47-.28a10,10,0,0,0-1.36-1l-.67-.38-.11-.06-.69-.35-1-.47-3.14-1.79-.1-.07a.18.18,0,0,0-.07,0c-.47-.52-5.25-5.76-8.48-9.56-3,3.18-9.28,2.47-12.45-.57a5.76,5.76,0,0,1-.6.84c-.4.63-.93,1.17-1.29,1.82l-.18.35a6.75,6.75,0,0,0-.29.72c-.07.18-.14.38-.2.57s-.15.53-.22.8-.07.28-.11.42c-.16.69-.27,1.31-.33,1.69a6.76,6.76,0,0,0-.09,1c0,.08,0,.17,0,.25a3,3,0,0,0,.14.73,2.83,2.83,0,0,0,.35.67,2.25,2.25,0,0,0,.24.3,5.82,5.82,0,0,0,1.53,1.11,25.43,25.43,0,0,0,2.77,1.24l1.41.57c.47.19.94.39,1.4.61,1.48.69,3,1.5,4.43,2.29,1.06.57,2.13,1.13,3.22,1.64.86.41,1.74.79,2.63,1.12l.74.26.75.23,1.47.36.81.16q1.15.21,2.31.36c2.06.27,4.14.43,6.19.75a4.74,4.74,0,0,0,1.15.06,2.35,2.35,0,0,0,2.18-1.19,1.93,1.93,0,0,0,.13-.5Zm-6.36-7.19-.77-.38-.06,0a15.22,15.22,0,0,1-2.26-1.36h0Z" transform="translate(-658.05 -376.39)"/><path class="cls-148" d="M996,574.87s2.27.06,1.71,6.4-6.81,57.55-6.81,57.55l-9.86.33s-5.38-38,2.67-59.49C983.7,579.66,988.09,570.07,996,574.87Z" transform="translate(-658.05 -376.39)"/><path class="cls-149" d="M884.94,660.83l.09-.11a7.28,7.28,0,0,1,1.11-1.11l-.46.27.47-.28a14.45,14.45,0,0,1,2.83-1.74l.95-.47,3.15-1.79.16-.13h0c.6-.65,11.09-12.07,11.62-13.05.92-4.27.21-10.53.21-10.53l8.66-.71s-1.23,7.75,0,13.57a11.64,11.64,0,0,1,1.44,2.07c0,.07.07.15.11.22l-.14,0,.11,0c1.24.5,2,4.25,2.16,5.44a3.33,3.33,0,0,1-2.17,4.06c-1.8,1-3.75,1.55-5.58,2.42-3.39,1.59-6.72,3.74-10.29,5.05-4,1.46-8.17,1.48-12.27,2.12-1.08.17-2.8.1-3.32-1.13S884.23,661.77,884.94,660.83Z" transform="translate(-658.05 -376.39)"/><path class="cls-136" d="M917.33,652.16a5.82,5.82,0,0,0-.13-.82A4.1,4.1,0,0,1,917.33,652.16Z" transform="translate(-658.05 -376.39)"/><path class="cls-136" d="M898.79,657.5l.07,0Z" transform="translate(-658.05 -376.39)"/><path class="cls-136" d="M899.23,657.34l.39-.16Z" transform="translate(-658.05 -376.39)"/><path class="cls-136" d="M894.5,656.63a1.84,1.84,0,0,1-.22-.17A1.84,1.84,0,0,0,894.5,656.63Z" transform="translate(-658.05 -376.39)"/><path class="cls-136" d="M894,656.19a.94.94,0,0,0,.1.1Z" transform="translate(-658.05 -376.39)"/><path class="cls-150" d="M883.62,664.58a1.94,1.94,0,0,0,.14.5,2.34,2.34,0,0,0,2.18,1.19,4.68,4.68,0,0,0,1.14-.06c2-.32,4.13-.48,6.19-.75q1.17-.15,2.31-.36l.82-.16c.49-.11,1-.23,1.46-.36l.75-.23.74-.26c.89-.33,1.77-.71,2.64-1.12,1.08-.51,2.15-1.07,3.21-1.64,1.48-.79,3-1.6,4.44-2.29.46-.22.92-.42,1.39-.61l1.41-.57a26.48,26.48,0,0,0,2.78-1.24,6,6,0,0,0,1.53-1.11,3.4,3.4,0,0,0,.23-.3,2.25,2.25,0,0,0,.35-.67,3,3,0,0,0,.14-.73,2.09,2.09,0,0,0,0-.25,5.63,5.63,0,0,0-.09-1,16.6,16.6,0,0,0-.33-1.69c0-.14-.07-.28-.1-.42s-.15-.53-.23-.8-.12-.39-.19-.57-.19-.5-.29-.72l-.18-.35c-.37-.65-.89-1.19-1.3-1.82a6.64,6.64,0,0,1-.6-.84c-3.17,3-9.49,3.75-12.44.57-3.23,3.8-8,9-8.49,9.56l-.07,0-.09.07-3.15,1.79-.95.47-.68.35-.12.06-.66.38a10.79,10.79,0,0,0-1.37,1l-.47.28.46-.27-.45.39-.17.18-.15.15a4.32,4.32,0,0,0-.34.39l-.09.11-.14.19h0a3.28,3.28,0,0,0-.2.31,8,8,0,0,0-.61,1.21c0,.09-.07.19-.11.29a4.5,4.5,0,0,0-.17.6,3,3,0,0,0-.09.59,2.35,2.35,0,0,0,0,.53Zm9.45-9h0a15.12,15.12,0,0,1-2.25,1.36l-.07,0-.76.38C891,656.78,892,656.18,893.07,655.6Z" transform="translate(-658.05 -376.39)"/><path class="cls-151" d="M899.45,574.87s-2.27.06-1.71,6.4,6.81,57.55,6.81,57.55l9.87.33s5.37-38-2.67-59.49C911.75,579.66,907.35,570.07,899.45,574.87Z" transform="translate(-658.05 -376.39)"/><path class="cls-152" d="M949.23,541.24c-.34-1,.31-1.57.21-2.52a3,3,0,0,0-1-1.6c-.68-.75-.19-1.34,0-2.24,0-.2-1.16-1.31-1.3-1.46a13.27,13.27,0,0,1-1.41-1.49c-.51-.79,0-1.42.58-2l6.63,2.24c-.37-.77-1.1-2.27-1.61-3.44-.72-1.66,1.13-1.87,1.13-1.87a7.26,7.26,0,0,0,1.77,2.9l2.17,1.79h0l3.4,2.8,3.75,2s21.39-1.28,25.4,1.58c1.71,1.22,4,3.39,4.27,5.67.58,4.31-3.94,6.2-7.24,6.59-4.5.54-8.43-1.83-12.57-3.29-1.69-.59-3.38-1.17-5.09-1.72-1.54-.5-3.49-1.49-5.1-1.56l-12.29-.48C950.12,543,949.48,542,949.23,541.24Z" transform="translate(-658.05 -376.39)"/><path class="cls-153" d="M947.11,541.24c.34-1-.31-1.57-.2-2.52a3,3,0,0,1,1-1.6c.68-.75.19-1.34,0-2.24,0-.2,1.16-1.31,1.3-1.46a12.42,12.42,0,0,0,1.41-1.49c.51-.79,0-1.42-.58-2l-6.63,2.24c.38-.77,1.1-2.27,1.61-3.44.72-1.66-1.13-1.87-1.13-1.87a7.26,7.26,0,0,1-1.77,2.9L940,531.59h0l-3.4,2.8-3.75,2s-21.39-1.28-25.4,1.58c-1.7,1.22-4,3.39-4.27,5.67-.58,4.31,3.94,6.2,7.24,6.59,4.5.54,8.43-1.83,12.57-3.29,1.69-.59,3.39-1.17,5.09-1.72,1.54-.5,3.5-1.49,5.11-1.56l12.28-.48C946.23,543,946.86,542,947.11,541.24Z" transform="translate(-658.05 -376.39)"/><polygon class="cls-154" points="142.13 289.15 142.1 289.93 146.41 289.93 152.56 178.32 146.49 178.32 142.13 289.15"/><polygon class="cls-155" points="398.6 178.32 392.53 178.32 398.69 289.93 403 289.93 398.6 178.32"/><path class="cls-156" d="M795.2,544.91h272.88a0,0,0,0,1,0,0v6.82a0,0,0,0,1,0,0H795.2a2.1,2.1,0,0,1-2.1-2.1V547A2.1,2.1,0,0,1,795.2,544.91Z" transform="translate(1203.14 720.24) rotate(180)"/><rect class="cls-157" x="139.27" y="175.33" width="266.54" height="5.73"/><polyline class="cls-158" points="289.38 135.47 280.82 165.53 263.81 166.3 263.81 168.42 325.84 168.42 334.84 135.47 288.83 135.47"/><path class="cls-159" d="M960.11,477.38l-.73,7.22-1.1,11-.31,3.1c-9.3,10.26-20.94,9.14-23.82,4.47s.08-27.31.08-27.31Z" transform="translate(-658.05 -376.39)"/><polygon class="cls-160" points="278.44 109.06 278.69 118.79 273.14 118.93 278.44 109.06"/><path class="cls-161" d="M924.39,470.35a3.57,3.57,0,0,0-.06,1.42,3.06,3.06,0,0,0,3.56,2.52,4.66,4.66,0,1,0,7.38,4.93c1.63.79,2.9,1.55,4.76,1.32.76-.09,4-1,4-2.05a9.27,9.27,0,0,0,11.92-.88,13.15,13.15,0,0,0,.67,10.18c.49,1,1.12,1.89,1.65,2.86.41.76.68,1.13.3,1.92a13.54,13.54,0,0,0-1,2.07,5.5,5.5,0,0,0,.77,5.48,2.87,2.87,0,0,0,1.52,1,1.54,1.54,0,0,0,1.62-.62A1.06,1.06,0,0,0,961,499a1.61,1.61,0,0,0,2.42-2.07c.25.39,4.11-3.5,4.4-3.88a16.58,16.58,0,0,0,2.79-5.37,17,17,0,0,0,.26-8.61,21.66,21.66,0,0,0-.84-2.85,5,5,0,0,0-1.32-1.76,1,1,0,0,0,1.14-.45,1,1,0,0,0-.24-1.2,1,1,0,0,0-1.23,0,2.6,2.6,0,0,0,.24-.81.88.88,0,0,0-.29-.77.55.55,0,0,0-.76.09.9.9,0,0,0-.09.47c0,.49,0,1,0,1.48-.34-2.59-3.07-5.23-4.86-7a22,22,0,0,0-7-4.69c-5.49-2.26-12.13-2-17.07,1.32a7.87,7.87,0,0,0-4-1.87,4.25,4.25,0,0,0-4,1.6,3,3,0,0,0,.58,4,7.53,7.53,0,0,0-4.73,1A4.68,4.68,0,0,0,924.39,470.35Z" transform="translate(-658.05 -376.39)"/><path class="cls-162" d="M963.62,483.79c1.89,2.81.68,8.62-5.19,10.31l.28-10.21A3.07,3.07,0,0,1,963.62,483.79Z" transform="translate(-658.05 -376.39)"/><path class="cls-163" d="M924.82,429.28H898.44a3,3,0,0,0-3,3v19.74a3,3,0,0,0,3,3H913l9.29,7.89v-7.89h2.55a3,3,0,0,0,3-3V432.31A3,3,0,0,0,924.82,429.28Z" transform="translate(-658.05 -376.39)"/><path class="cls-42" d="M923,438.58H900.29a1.16,1.16,0,0,1,0-2.32H923a1.16,1.16,0,0,1,0,2.32Z" transform="translate(-658.05 -376.39)"/><path class="cls-42" d="M923,442.86H900.29a1.16,1.16,0,1,1,0-2.32H923a1.16,1.16,0,1,1,0,2.32Z" transform="translate(-658.05 -376.39)"/><path class="cls-42" d="M923,447.15H900.29a1.17,1.17,0,0,1,0-2.33H923a1.17,1.17,0,0,1,0,2.33Z" transform="translate(-658.05 -376.39)"/><rect class="cls-164" x="439.03" y="42.47" width="34.98" height="27.82" rx="3.27"/><polygon class="cls-165" points="455 70.29 444.99 78.8 444.99 70.29 455 70.29"/><path class="cls-42" d="M1116.3,429c0-1.29-1.13-2.11-2.84-2.11a4.46,4.46,0,0,0-3.82,1.95l-3.19-1.87c1.42-2.16,3.9-3.53,7.45-3.53,4,0,6.69,1.77,6.69,4.88,0,4.21-4.42,4.68-4.42,7.48h-4C1112.19,432.15,1116.3,431.33,1116.3,429Zm-4.63,11a2.53,2.53,0,0,1,5,0,2.53,2.53,0,0,1-5,0Z" transform="translate(-658.05 -376.39)"/><path class="cls-166" d="M812.89,443.93a19.11,19.11,0,1,1,4.36,4l-7.42,4Z" transform="translate(-658.05 -376.39)"/><path class="cls-42" d="M836.93,429.08s-1.28,0-2.76,0-2.6.19-3.09-.56.39-2.95,0-4.41-.84-3-1.91-3.13a1.39,1.39,0,0,0-1.46.83l.27,3.25-3.39,4.54v8.53a4,4,0,0,0,2.62,1.6h7.07a1.28,1.28,0,0,0,1.26-.55,1.23,1.23,0,0,0-.19-1.5.19.19,0,0,1-.08-.23c0-.09.13-.12.13-.12a1.2,1.2,0,0,0,1.2-1,1.51,1.51,0,0,0-.64-1.4.11.11,0,0,1,0-.18,1.33,1.33,0,0,0,1.44-1.08,1.48,1.48,0,0,0-.71-1.57.11.11,0,0,1-.08-.17,1.35,1.35,0,0,0,1.36-1.3A1.61,1.61,0,0,0,836.93,429.08Z" transform="translate(-658.05 -376.39)"/><path class="cls-42" d="M822.6,429.6h-3.55a.37.37,0,0,0-.37.37v9.3a.37.37,0,0,0,.37.38h3.55a.38.38,0,0,0,.38-.38V430A.38.38,0,0,0,822.6,429.6Z" transform="translate(-658.05 -376.39)"/></g></g></svg>